<?xml version="1.0" encoding="UTF-8"?>
<svg id="a" xmlns="http://www.w3.org/2000/svg" viewBox="0 0 459.87 132.35"><defs><style>.c{fill:#ceb888;}.d{fill:#fff;}</style></defs><path class="d" d="M272.09,98.88h14.12v-62.32h-14.12v-14.78h32.49v77.1h13.85v14.78h-46.34v-14.78Z"/><path class="d" d="M329.25,79.83l18.11-42.08h-33.96v-15.98h54.6v12.25l-20.24,46.61v33.02h-18.51v-33.82Z"/><path class="d" d="M375.71,101.94v-16.25h18.51v9.72l3.73,3.73h11.59l3.86-3.86v-25.17l-2.93-3.06h-11.72l-5.86,5.86h-17.18V21.77h55v15.31h-36.49v21.97l6.52-6.53h20.24l10.92,10.92v38.35l-11.85,11.85h-32.63l-11.72-11.72Z"/><g id="b"><path class="c" d="M252.29,98.74V21.77h-19.62v72.13c-2.09.26-7.98.39-11.9.39-4.32,0-10.73-.13-12.17-.39V21.77h-25.51s6.15,4.32,6.15,10.86v77.75l1.18.39c.39.13,10.73,2.88,30.35,2.88,17.79,0,34.01-3.53,34.14-3.66l3.4-.65s-6.02-1.44-6.02-10.6M244.31,104.5s-6.02,1.7-23.67,1.7c-13.87,0-23.94-1.7-23.94-1.7V29.23h4.18v71.48s9.29,1.31,19.75,1.31c15.04,0,19.49-1.31,19.49-1.31V29.23h4.19v75.27Z"/><path class="c" d="M69.17,18.69c-20.54,0-36.76,3.79-36.89,3.79l-3.27.79,2.74,1.96c3.01,2.22,4.19,4.45,4.32,7.98,0,0-.13,66.58,0,70.11,0,3.27-1.31,5.23-4.32,7.59l-3.79,2.75h35.71l-3.79-2.75s-4.19-3.53-4.06-7.59v-23.67h37.67c1.31.13,3.27.92,3.27.92l2.48,1.57v-24.33l-2.35,1.44s-1.31.79-3.14.79h-37.94v-21.45s7.72-1.04,11.9-1.04,15.3,1.18,20.54,3.14c6.02,2.35,10.99,6.8,10.99,6.8v-25.51l-1.31-.26c-.13,0-12.43-3.01-28.78-3.01M92.98,34.65s-3.4-1.7-9.03-2.62c-5.76-1.05-8.11-1.31-16.09-1.44-10.99-.26-19.62,1.31-19.62,1.31v35.58h43.56v4.58h-43.56v34.79h-4.71l.13-78.87s9.29-2.09,24.07-2.09c7.98,0,16.09.52,25.25,2.09v6.67Z"/><path class="c" d="M175.84,99.4v-21.19c0-4.45-3.01-5.76-3.01-5.76l-40.68-25.12v-8.89c2.49-.39,4.84-.79,15.17-.39,6.67.26,11.38,1.05,15.7,2.49,6.93,2.22,9.55,4.32,9.55,4.32l3.27,2.74-.13-25.77-1.57-.26c-.52-.13-15.04-2.88-30.48-2.88-19.49,0-33.62,3.53-34.27,3.66l-3.93.92,3.27,2.48c2.62,1.96,3.79,4.06,3.92,7.2l-.13,18.18c0,5.76,4.32,8.11,4.32,8.11l39.37,24.59v10.07c-2.35.39-5.62.79-15.83.39-6.8-.26-10.6-1.18-15.04-2.49-7.19-1.96-12.82-7.06-12.82-7.06v25.64l1.57.39c.65.13,14.39,2.88,29.95,2.88,19.49,0,34.27-3.53,34.92-3.66l4.06-.92-3.4-2.48c-2.62-1.96-3.66-4.06-3.79-7.2M168.25,104.37s-8.9,1.96-22.76,1.96c-7.72,0-16.61-.52-25.25-1.96v-6.28s3.4,1.57,8.63,2.49c5.49.91,8.9,1.18,16.35,1.31,10.46.26,18.57-1.18,18.57-1.18v-17.14c0-3.79-3.79-5.89-3.79-5.89l-36.1-22.63s-3.66-2.22-3.66-6.41v-20.67s8.11-1.96,21.97-1.96c7.59,0,17.14.52,25.9,1.96v6.28s-3.27-1.57-8.5-2.49c-5.49-1.04-9.68-1.18-17.27-1.31-10.33-.26-17.79,1.18-17.79,1.18v15.57c0,3.53,3.53,5.49,3.53,5.49l36.76,22.76s3.4,1.83,3.4,5.88v23.02Z"/><path class="d" d="M164.85,75.46l-36.76-22.76s-3.53-1.96-3.53-5.49v-15.57s7.45-1.44,17.79-1.18c7.59.13,11.77.26,17.27,1.31,5.23.91,8.5,2.48,8.5,2.48v-6.28c-8.76-1.44-18.31-1.96-25.9-1.96-13.87,0-21.98,1.96-21.98,1.96v20.67c0,4.18,3.66,6.41,3.66,6.41l36.1,22.63s3.79,2.09,3.79,5.88v17.14s-8.11,1.44-18.57,1.18c-7.46-.13-10.86-.39-16.35-1.31-5.23-.92-8.63-2.49-8.63-2.49v6.28c8.63,1.44,17.53,1.96,25.25,1.96,13.87,0,22.76-1.96,22.76-1.96v-23.02c0-4.06-3.4-5.89-3.4-5.89"/><path class="d" d="M240.12,100.71s-4.45,1.31-19.49,1.31c-10.46,0-19.75-1.31-19.75-1.31V29.23h-4.19v75.27s10.07,1.7,23.94,1.7c17.66,0,23.68-1.7,23.68-1.7V29.23h-4.19v71.48Z"/><path class="d" d="M43.66,27.98l-.13,78.87h4.71v-34.79h43.56v-4.58h-43.56V31.91s8.63-1.57,19.62-1.31c7.98.13,10.33.39,16.09,1.44,5.62.91,9.03,2.62,9.03,2.62v-6.67c-9.16-1.57-17.27-2.09-25.25-2.09-14.78,0-24.07,2.09-24.07,2.09"/></g></svg>