<svg xmlns="http://www.w3.org/2000/svg" height="150px" id="Layer_2" viewBox="0 0 594.05 150" width="100%">
  <defs>
    <style>
      .cls-1 {
        fill: #f56600;
      }
    </style>
  </defs>
  <g>
    <g id="Paw_x5F_RGB_x5F__x5F_Orange">
      <g>
        <path class="cls-1" d="M527.66,137.6s.2.1.22.14c.04.13,0,.18-.07.22,0,0,.12.35.14.43-.11-.07-.16-.03-.29-.07-.02-.1-.14-.16-.15-.22-.04-.21.12-.38.15-.51M527,137.6c.1.03.4.41,0,.29-.1-.03-.2-.35,0-.29M563.64,137.17s-.05.25-.07.36c.49.39,1.27.88.8-.29-.31-.04-.45-.03-.72-.07M565.52,136.73c-.28.27-.48.55-.72.87,0,0,.14-.15.14-.15.26-.09.45-.13.87-.14-.04-.23-.05-.31-.07-.58-.01,0-.22,0-.22,0M564.29,135.07c.03.12,0,.3,0,.43.71.18.45.37.65-.36-.07-.05-.12-.05-.14-.14-.12-.04-.2-.01-.29-.07-.02.04-.17.11-.22.14M565.01,129.42s0,.18,0,.22c.08.04.22.2.29.22.77.17.46-.56.36-.8-.06,0-.24.03-.29,0-.09.12-.27.24-.36.36M563.42,123.41c.12.26.12.68.65.51.05-.02.14-.18.22-.22,0-.1-.03-.27,0-.36-.07-.05-.24-.27-.29-.29-.08-.03-.15.05-.22,0-.1.12-.26.24-.36.36M573.48,120.01c.22.41.43.66.51,1.23.07.01.18.14.22.14.4.07.66-.22.87.29.12.3-.02.86.36.65.11-.06.12-.66.14-.8-.5-.13-.85-.35-1.16-.65.02-.05.08-.21.07-.22-.06-.09-.87-.56-1.01-.65M559.44,118.78v.14s-.09.26-.07.36c.02.12.21.36.29.51h.15s.09.2.14.22c.08.03.21-.04.29,0,.02-.04.22-.29.22-.29.02-.18-.13-.15-.14-.22-.05-.18.09-.28.07-.36-.03-.14-.6-.52-.94-.36M586.66,117.19c-.04.08-.2.16-.22.22-.06.18-.05.44-.07.58-.25.08-.5.19-.72.29.18.29.27.56.58.72,1.31.71.66-1.11.58-1.81h-.14ZM562.19,116.39c-.02.06-.17.18-.22.22.16.33.23.75.72.58.14-.05.12-.22.22-.29-.07-.05-.14.03-.22,0-.17-.07-.2-.45-.36-.51h-.15ZM562.99,115.45c-.04.09-.13.1-.22.14.06.16.04.29.07.43.12.01.07.09.14.14.03-.03.24,0,.29,0-.04-.29-.03-.46-.07-.72-.01,0-.22,0-.22,0M586.88,114.15s.05.21.07.29c-.08.02-.12.13-.15.14-.19.06-.44.05-.58.07-.05.67-.25.98-.22,1.52-.29-.54-.49-.5-.94-.14-.07-.09-.12-.31-.22-.36-.23-.13-1.27-.06-1.67-.14-.02.08-.14.11-.14.14-.09.26,0,.73,0,1.01-.01,0-.14.07-.14.07-.05-.11-.14-.14-.22-.22.19-.62.02-1.45-.72-.94-.09.06-.07.29-.14.36-.07.07-.29.11-.36.14.05.2-.02.34.07.51.14.26.77.22.87.51.04.12-.05.24,0,.36-.02,0-.2-.02-.22,0-.23-.21-.31-.34-.43-.65-.24-.03-.65.01-.94-.07-.03,0-.17-.21-.22-.22-.27-.05-.37.17-.65.07-.03-.01-.07-.13-.14-.15.38-.22.35-.18.29-.72l-.22-.07c-.06.09-.17.07-.22.14-.04.06-.02.32-.07.36-.17.14-.43-.03-.58.22-.06.1-.19.69-.22.8-1.4-.41-.88.65-1.74.65,0,0-.18-.07-.22-.07v-.14c.1-.03.26,0,.36,0-.03-.02.06-.13.07-.14-.07-.06-.11-.04-.14-.14-.29-.05-.73-.18-.94-.14-.14.02-.32.29-.43.36-.27.16-.56.14-.87.29-.05.02-.15.2-.22.22-.24.05-.3-.14-.51-.07-.02,0-.13.19-.14.22-.26.33-.2.49,0,.87-.17.04-.33.08-.58.15.03-.08-.03-.21,0-.29,0-.02.19-.13.22-.14-.05-.12.04-.24,0-.36-.02-.04-.19-.15-.22-.22-.15.06-.31.05-.43.07-.03.29-.11.79-.14,1.09-.22,0-.21-.03-.43,0,.04.1-.04.26,0,.36.04.11.39.22.51.29,0,.01-.03.41-.07.29-.05.08.03.13,0,.22-.02.04-.18.15-.22.22h-.14c-.11-.23-.16-.4-.29-.58-.33-.43-.27-.18-.8-.36-.02,0-.12-.21-.14-.22-.13-.05-.24.04-.36,0-.04.08-.2.16-.22.22-.07.21.02.42-.07.58-.14.25-.49.15-.72.29-.28.16-.43.8-.51,1.16-.58-.27-.22-.27-.8,0,.03.12-.04.17-.07.29.3.21.31.24.65.29-.02,0-.02.26-.07.29-.09.04-.27,0-.36,0-.04.08-.2.21-.22.29-.07.29.13.59.14.8,0,.14-.08.21-.07.29h-.14c-.15-.05-.29-.46-.43-.51-.23-.07-.26.08-.43.07-.19.62-.24.57.22.94-.15.13.03.95.07,1.23-.11-.11-.25-.18-.36-.29.15,0-.4-.06-.22,0-.08.07-.21,0-.29.07v.15c-.23.65.2.73.43,1.3-.02.02.01.19,0,.22-.04.09-.38.19-.43.29-.04.07.01.21,0,.29-.01.07-.21.34-.22.36-.04.14.03.29,0,.43.13.11.41.29.51.43.08.12.05.27.14.36.1.1.27.1.36.22.21.29.4,1.05.51,1.45.11.02.26,0,.36.07-.03.03-.05.19-.07.22-.07.1-.31.12-.36.22-.13.22.02.79,0,1.16.13.05.03,0,.07.14.29,0,.45.05.8,0-.03.08.02.21,0,.29-.06.23-.49.4-.22.8.04.06.27.08.29.14.1.35-.24.54.07.72.09.05.4.12.51.14-.03.26-.15.6,0,.87.02.04.2.1.22.14.05.17-.07.42,0,.58.02.04.11.04.14.07.19.17.38.14.58.29.07.05.02.13.07.22.28.46.67.2,1.01,0-.04.5-.06.69-.15,1.16.05.01.43.11.36.07.2-.13.43-.09.51-.36.02-.08-.04-.22,0-.29.04-.07.26-.03.29-.07.03.06-.02.16,0,.22.01.05.21.19.22.22.02.12-.1.42-.07.43-.05.01-.14.12-.14.15.01.01,0,.2,0,.22.36.16.45.21,1.01.15,0,.04-.03.34,0,.36-.06.09-.21.15-.29.22.02.07,0,.22,0,.29.1.04.09.12.14.22.4-.07.42-.07.65-.22.07-.05.31-.15.36-.22.13-.19.03-.4.22-.51.09-.05.25.03.36,0l.15-.14c.38-.09.24.03.51.07-.04.12,0,.31,0,.43-.2.07-.41.15-.58.22.01.12.07.51.07.51.11.02.23.11.43.07.1-.02.26-.23.36-.29.45-.28.71-.11,1.23-.29.03-.01.07-.13.14-.15-.03-.16.07-.36,0-.51h-.07c-.13,0-.26-.17-.36-.22,0-.13.03-.31,0-.43.07-.06.1-.22.22-.22h.07c.14.13.31.45.51.51.08.02.21-.03.29,0-.09.26-.06.37-.14.65.26.11.69.36,1.09.15.35-.19.1-.47.07-.65-.03-.19.08-.27.07-.36.48-.03.89-.1,1.38-.29.02-.01.05-.14.07-.14h.15c.11-.18,0-.42.07-.65.05-.16.29-.24.36-.36.07-.15,0-.22.07-.36.31.01.98.04,1.3-.15.15-.09.22-.33.36-.43.06-.05.14.03.22,0,.47-.18.15-.65,0-.87.25-.07.72-.14.8-.36.04-.12-.06-.33,0-.43h.07c.29-.15.5-.44.72-.65.07.03.21-.03.29,0,.18.06.22.43.65.29.05-.02.14-.18.22-.22-.07-.11,0-.27-.07-.36-.03-.05-.4-.2-.43-.29-.03-.08.05-.15,0-.22.68-.18.81-.15.72-.94.24-.15.48-.19.72-.36.07-.05.06-.16.14-.22-.05-.34-.14-.79.15-.94.53-.28.69.17.94.22.3.06.34-.11.51-.14-.02-.17.09-.12.07-.29,0-.07-.16-.23-.14-.36,0-.03.21-.2.22-.22.03-.09-.04-.14,0-.22-.12-.05-.31-.15-.43-.22.21-.46.18-.61,0-1.09.24.13.47.26.72.36-.02,0,.36,0,.43,0,.05-.12.28-.81.36-.87.19-.13.45-.03.65-.14.15-.09.06-.41,0-.36.03-.12-.04-.25,0-.36,0-.03.13-.07.15-.14.57.04.66,0,1.01-.14.06-.52.06-.74-.29-1.01-.04-.03-.2-.1-.22-.14-.05-.16.02-.34,0-.51.12-.03.12.06.14-.07.12.05.24-.05.36,0,.09.04.06.31.15.36.42.29.97.09,1.09-.29.09-.28-.04-.27-.07-.51h-.14s.07-.58.07-.58c-.26.02-.3.01-.43,0-.05-.12.04-.24,0-.36-.02-.05-.19-.1-.22-.14-.08-.12,0-.22-.07-.36.08-.04.13-.2.22-.22.05-.01.17.03.22,0,.13-.1.21-.45.36-.51.16-.06.47,0,.65,0,.11-.39.24-.7.36-1.01-.05-.04-.08-.25-.14-.29-.14-.08-.33-.08-.43-.14-.42-.27.48-.48.65-.65.07-.07,0-.22.07-.29-.08-.02-.98-.2-1.01-.22-.04-.02-.25-.57-.29-.65.36-.12.41-.19.65-.36-.11-.09-.1-.27-.22-.36-.1-.08-.17-.04-.29-.07,0-.01-.05-.26-.07-.36.23-.11.39-.18.58-.29-.04-.1.04-.26,0-.36-.02-.05-.19-.1-.22-.14-.1-.16-.16-.43-.22-.58-.04.12-.07-.22-.07-.22.31-.18.08-.61-.29-.58l-.14.14c-.14.07-.24.09-.36.14,0,.01,0,.47,0,.43.04.09.18.15.22.22.07.15.03.3.07.43-.16-.14-.29-.22-.43-.36-.12.04-.24-.05-.36,0-.09.03-.2.33-.29.36-.12.04-.24-.05-.36,0,0-.02-.07-.15-.07-.15-.04.11-.07-.28-.07-.29.02-.01.21-.13.22-.15.05-.18-.09-.28-.07-.36h-.14c-.1.03-.19.37-.29.43-.05.03-.17-.01-.22,0-.05.01-.24.2-.29.22-.43.14-.83.14-1.38.14-.13.27-.12.26-.22.65-.01,0-.22,0-.22,0-.02-.17-.07-.52-.07-.8.16-.06.22-.03.43-.07-.03-.33-.03-.71-.14-1.09.34.06.38.11.72,0l.07-.14c.12-.05.37,0,.51,0-.01-.07.1-.14.07-.29-.06-.3-.47-.58-.65-.8-.08.11,0,.18-.07.29-.06.08-.14.01-.22.07-.09.06-.15.27-.22.36-.01-.02-.2-.05-.22-.07-.06-.06-.05-.19-.07-.29-.08-.02-.12-.14-.14-.15-.27-.09-.42.1-.58.15l-.07-.07c.02-.44-.02-.49-.07-.8-.06,0-.24.03-.29,0-.06.09-.25.17-.29.29M556.47,110.53s0,.94,0,.94c-.04.05-.18.09-.22.14-.03.05-.03.33-.07.36-.11.09-.18.04-.36.07.09.05-.17.09-.22.07-.03-.01-.07-.12-.15-.14.05-.38.15-.8-.22-.94-.14-.06-.17.1-.36.07-.06-.01-.23-.21-.29-.22-.57-.12-.82.26-1.09.43-.07-.05-.14.03-.22,0-.11-.04-.19-.31-.29-.36-.26-.12-.9-.07-1.16.07-.35.19-.16.96-.36,1.3-.03.05-.5.43-.58.51-.08-.08-.36-.41-.43-.43-.76-.22-1.22,1.08-1.59-.29-.04,0-.28-.11-.43-.07l-.07.14c-.24.15-.44.47-.07.65.06.03-.1.08-.07.14-.16.04-.35.17-.51.14-.19-.04-.16-.36-.58-.29-.1.02-.61.5-.65.51-.16.03-.5-.05-.72-.07l-.07.22c-.57.15.05-.29.15-.36-.02-.11-.08-.34-.07-.36-.29-.05-.38-.03-.65-.07-.02.09-.09.1-.14.14.07.29.07.42.14.65-.18.08-.43.05-.51.22-.07.14-.06.55-.07.65-.15-.05-.14.12-.29.07-.09-.03-.15-.32-.29-.36-.38-.11-.72-.02-1.09-.07-.06.73-.4,1.2-.72,1.67-.03-.02-.18,0-.22,0-.15-.32-.13-.26-.22-.72-.12-.03-.11.05-.14-.07-.07.04-.21-.03-.29,0-.03,0-.07.12-.14.14,0,0,0,.34.07.22-.02.07-.07.29-.07.29-.17.02-.35-.05-.51,0-.1.03-.19.32-.29.36-.53.23-.99-.07-1.38-.22-.15.21-.26.25-.36.58,0-.06.03-.49,0-.58-.01-.04-.13-.05-.14-.14-.1.04-.26-.04-.36,0-.06.02-.19.16-.29.22-.07-.05-.14-.25-.22-.29-.1-.05-.86-.19-1.01-.14-.01,0-.06.13-.07.14-.42.37-.2.28-.14.72l.07.29s.34,0,.22-.07c.08,0,.2,0,.29,0,0,.02-.01.29,0,.29-.17-.03-.12.1-.29.07-.06-.01-.23-.28-.29-.29-.22-.05-1,.2-1.16.29-.07.04-.02.16-.07.22-.09.08-.25.07-.36.14-.05.03-.1.2-.15.22-.04.02-.18-.02-.22,0-.05-.13-.11,0-.14-.07-.03-.06,0-.23,0-.29-.13-.03-.04-.03-.07-.14-.13,0-.32.04-.43,0-.16.22-.34.53-.58.65-.35.18-1.18.22-1.38.51-.08.11,0,.18-.07.29-.13-.05-.06.08-.07.14-.19-.06,0,.22,0,.22.19.06.24-.08.43-.07,0,0,0,.22,0,.22-.18.05-.16.02-.36.07.11.07-.2.07-.22.07l-.07-.36c-.05-.03-.34.04-.36,0-.06-.12,0-.44,0-.58-.78-.17-.53-.12-.87.51-.01.02-.22.21-.22.22-.06.26.11.49.07.65-.02.08-.19.14-.22.22-.09-.04-.26,0-.36,0,.01-.2.03-.29.07-.51-.06-.05-.13-.04-.14-.14-.14,0-.51.07-.51.07,0,0-.21.06-.22.07-.1.1-.05.41-.14.51-.14.14-.43.09-.58.22-.05.04,0,.19-.07.22-.1.04-.26-.04-.36,0,.07-.04-.14-.14-.14-.14.01-.02.14-.22.14-.22.26-.08.51-.04.65-.22.01-.02.14-.22.14-.22.02-.11-.07-.43-.07-.43-.69,0-1.08.08-1.45.58-.06.08-.06.25-.14.29-.22.1-.48-.03-.65.07-.09.05-.37.91-.29,1.16.02.05.18.14.22.22.13,0,.3-.03.43,0,0,.01-.09.14-.07.14-.55.1-.57.22-.8.65-.72,0-.83.06-1.01.58v.14c-.15.12-.43.04-.58.14-.36.25-.07,1.26-.07,1.88.31.09.76.23.87.51.03.08-.05.14,0,.22-.17.12-1.13.97-1.16,1.09-.07.23.05.38.07.58.1,0,.24.11.43.07.15-.03.19-.22.29-.29,0,0,.32.11.22.14.04.03.19.09.22.14.08.16.02.28.07.51-.1.02-.11.14-.14.22-.08-.04-.17-.2-.22-.22-.15-.05-.35.02-.51,0-.08.24-.33.67-.29.94,0,.05.2.19.22.22.11.24-.02.25,0,.51-.09-.05-.06.11-.22.07-.02,0-.08-.13-.14-.14.29-.11-.41-.11-.22-.07l-.07.29c.29.18.82.3,1.01.58.11.15.07.39.22.51.23.19.51.08.58.43.08.41-.21.53-.15.87.03.18.36.29.43.43.05.12.14.52.14.58.03.33-.08,1.14.07,1.52h.07c.22.11.38.51.58.58h.14s.02.19.07.22c.16.08.34-.02.51.07.13.07.72.9.43,1.16.36.28,1.09.47,1.01,1.16,0,0-.19.3-.22.36.09-.05.06.11.22.07.08-.02.1-.21.14-.29.06,0,.24.03.29,0,.15.15.74.59.22.72-.05-.06-.14-.26-.22-.29-.08-.03-.21.03-.29,0-.04.07-.16.17-.22.22,0,0,0,.26.07.14.05.17.03.12.07.29.14-.07.07.51.07.51.44-.14.59-.18,1.09-.14.01-.02.06-.14.07-.14.07-.02.36.05.29.07.11.19.24.34.36.51-.33.1-.72.11-.8.43-.01.04.02.18,0,.22-.05.07-.26.13-.29.22-.04.1.04.26,0,.36.13-.06.24,0,.36-.07.13-.08.24-.34.36-.43.24-.2.48-.31.72-.51.17.24.37.59.58.8.09.09.39.18.43.29.08.21-.09.27-.07.43l.14.22c.11.53.03.4.22.8.08-.03.21.02.29,0,.2-.05.42-.38.58-.51.55.49,1,.89,1.88.43-.05.43-.09.85.29,1.01.12.05.22-.02.29.07.05.07.18.57.22.65.82-.12,1.04-.02,1.59.29.11-.07.41-.39.58-.36,0,0-.06.35-.07.43.05.03.4.24.43.29.06.11-.03.31,0,.43.03.12.35.35.36.43.03.17-.11.27-.14.43.2-.05.5-.18.72-.14.2.03.36.34.51.43.12.07.23,0,.36.07.2.11.56.87.65,1.16.27-.09.78-.22,1.09-.22.09,0,.25.15.43.07v-.07c.12-.06.13-.23.22-.29.12-.08.22,0,.36-.07.22.72-.07.46.65.65.02-.02.12-.21.14-.22.08-.03.14.04.22,0,.06.05.15.25.22.29.2.11.78.12,1.01.15.02.16-.06.35,0,.51.11.31,1.45.56,1.88.65.03.13-.03.23,0,.36,0,.01.63.64.65.65.64.29.66-.2.94-.29.58-.18.79.17,1.01.29.12.07.23,0,.36.07.04-.11.12-.1.22-.14-.06-.4-.04-.63-.07-.87.12.03.17-.04.29-.07.06.11.24.53.36.58.41.15.95-.14,1.23-.14.49-.02.55.16.8.36.68-.3.74-.02,1.52-.14.07-.01.39-.21.43-.22.25-.04.5.1.65.07.07-.01.21-.18.29-.22-.03-.13.03-.24,0-.36,0-.03-.72-1.05.22-.8.03,0,.16.21.22.22.15.03.22-.09.29-.07-.08-.06.06-.31.07-.36-.08-.04-.03-.13-.07-.14-.13-.06-.24-.04-.36-.07,0-.15-.08-.22-.07-.29.02-.26.46-.39.58-.58.09-.14.05-.35.14-.51.11-.19.96-.56,1.3-.51.03,0,.2.21.22.22.07.02.22-.04.29,0,.1.06.18.32.29.36.05.02.16-.04.22,0,.06-.82.03-.63.65-.65,0,.19.05.46,0,.65,0,0-.21.13-.22.14.13.49-.03.35.29.65-.08.02-.11.13-.14.14-.11.04-.25-.03-.36,0,.12.04-.28.07-.29.07-.02-.05-.03-.16-.07-.22-.36-.53-.27-.51-1.16-.51-.05.14-.05.38-.14.51-.08.1-.33.13-.43.22-.11.09-.07.07-.14.22,0,0,0,.21,0,.22.05,0,.25-.03.29,0,0,.02.05.25.07.36-.36,0,.03.57.07.65-.24.19-.43.38-.65.58.04.13.09.16.07.29.75.44.9.36,1.3-.36.05.06.24.08.29.14.06.09.01.2.07.29.29.47.64.24,1.01.07-.06-.55-.01-.64.07-1.01.07.04.21-.03.29,0,.11.05.21.39.36.43.55.14.62-.28.87-.43.13-.08.23,0,.36-.07.13-.07.25-.28.36-.36.06.03.16-.02.22,0,.12.03.2.25.29.29.24.11.38.01.65,0,.01-.05.14-.2.14-.22.1-.39-.22-.58.07-.8.07.03.21-.03.29,0,.11.04.13.3.22.36.39.28.7,0,1.01-.14,0-.21,0-.44,0-.65-.16-.07-.6-.2-.65-.36-.03-.08.03-.21,0-.29.19.05.16-.12.36,0,.24.14.1.47.58.43.28-.02.55-.34.65-.58,0,0,.18-.1.07-.14-.12-.06-.26-.29-.22-.51,0-.03.2-.12.22-.14.17-.23.13-.4.22-.72-.06-.05-.13-.04-.15-.14-.02,0-.2.01-.22,0v-.22c.99.46,1.1.05,2.03-.22.02-.13,0-.41.07-.58.03-.08.26-.19.29-.29.04-.15-.03-.29,0-.43-.07-.05-.12-.05-.14-.14-.1,0-.28.04-.36,0-.05-.02-.12-.27-.14-.29.07,0,.17-.11.22-.14.4.27.24.24.8.22-.02-.17.09-.12.07-.29,0-.07-.21-.26-.22-.29-.05-.26.12-.32.14-.43.03-.14-.04-.3,0-.43.04-.16.27-.3.36-.43-.03-.05.01-.17,0-.22-.04-.17-.37-.28-.51-.36.18-.6.4-.8.51-1.52-.06-.01-.19-.14-.22-.14-.43-.1-.65.34-.87.51-.04.03-.12.18-.14.22-.03-.15-.08-.49-.14-.72-.02-.06-.21-.23-.22-.29-.07-.43.35-.49.43-.8v-.07c-.01.05-.09-.21-.07-.29.03-.12.59-1.11.29-1.3-.43-.27-.69.16-.94.22-.04,0-.18-.02-.22,0-.02-.08-.14-.12-.14-.14-.08-.23,0-.63,0-.87.04.13.07-.07.07-.07-.25-.55-.2-.41-.8-.36-.07.25-.22,1.18-.43,1.3-.17.1-.41,0-.58.07-.03.01-.2.21-.22.22-.16.03-.21-.09-.29-.07.08,0-.07-.22-.07-.22-.02-.26.27-.71.29-.87.04-.29-.11-.53-.15-.72l.07-.22c.14.03.3-.05.43,0,.34.11.22.76.8.51.57-.26.23-.87.07-1.23-.38.03-.54.02-.87.07.14-.49.09-.44,0-.87-.07,0-.24-.09-.36-.14,0,0-.48.47-.36.51.31.1.14.92,0,1.16-.11.17-.46.28-.65.36.05-.93-.03-.73.58-1.3-.09-.27-.07-.33-.14-.58.04-.03.2-.1.22-.14.06-.14-.06-.21.07-.29,0,0-.13-.38-.14-.43.07.05.22.02.29.07.05.03.1.2.15.22.08.02.35-.05.29-.07.01-.04.2-.1.22-.14.07-.22-.08-.58,0-.8.05-.16.45-.09.36-.58-.03-.16-.32-.33-.43-.43.22-.47.22-.28.07-.72-.11-.33-.2-.68-.51-.8-.79-.31-.9.14-.8.8-.05.04-.35.17-.36.22v.15s-.14,0-.14,0c-.05-.19-.01-.33-.14-.43l-.07-.07s-.02-.17,0-.22h.07c.28-.14.39-.41.58-.65-.71-.13-.71-.45-.94-1.23.17-.08.54-.36.72-.36.38-.02.29.2.43.29.13.08.22-.01.36.07.09-.06.19-.17.29-.22-.05-.21.02-.36-.07-.51-.01-.02-.29-.14-.29-.14-.07-.27.2-.26.14-.58-.03-.16-.28-.25-.36-.36-.07-.09-.02-.2-.07-.29-.13-.2-.44-.32-.65-.43.03-.14-.04-.3,0-.43.02-.08.28-.26.29-.36.04-.4-.38-.62-.65-.72-.15-.06.2-.16.29-.14l.14.14c.64.17.52-.45.51-.8-.09-.02-.1-.13-.15-.15-.35-.12-.81.28-1.01.36l-.15-.22s.2-.1.22-.15c.04-.12,0-.31,0-.43.11.05.04-.12.22-.07.03,0,.11.19.14.22.37.23.52.05.8-.14-.3-.74-.3-1.02-1.16-.58.01,0,0-.2,0-.22.29-.13.43-.1.58-.36.02-.03.1-.05.14-.07-.03-.08.03-.21,0-.29-.05-.14-.33-.28-.36-.43-.09-.42.06-.73,0-1.16.07.04.14-.12.29,0,.15.13.02.73,0,1.01.14-.02.26.09.51,0,.02-.01.05-.14.07-.14,0-.07.21-.19.14-.43,0-.02-.15-.17-.14-.22.01-.11.32-.18.29-.58-.02-.24-.26-.17-.14-.51,0-.02.19-.18.22-.22,0,0-.02-.19-.07-.07-.05-.02-.08-.26-.14-.29-.15-.05-.42,0-.58,0v-.14s.07,0,.07,0c.01-.05.03-.33.07-.36.31-.28.65.03,1.01-.07.04-.01.15-.19.22-.22,0-.07-.03-.23,0-.29-.24-.3-.45-.46-.8-.65,0-.09.04-.36,0-.43-.09-.14-.23-.05-.36-.15-.16-.12-.24-.51-.29-.72-.08-.02-.12-.14-.14-.14-.9-.31-.57.74-.43,1.09-.13.04-.13,0-.22.07-.28.22-.24.19-.65.07.05-.09-.15-.1-.07-.14.41-.25.24-.71.22-1.3l.22-.07c.36-.64.07-.6-.58-.58.05.73.15.52-.43.65-.38-.55-.52-.65-1.23-.65-.03.06-.09.28-.15.36.03.04.21.19.22.22-.04.03,0,.31,0,.36-.2.04-.29,0-.43.07-.11-.41-.19-1.03-.36-1.38.21-.17.35-.28.51-.51-.06-.1-.05-.26-.07-.36-.05,0-.37-.05-.29,0-.22.12-.23.02-.36.22-.03.05-.14.39-.15.43-.08-.02-.29-.07-.29-.07-.04-.06-.09-.18-.14-.22-.08.05-.12-.12-.15-.14.54-.3.55-.21.43-.8-.09-.02-.1-.13-.15-.14-.09-.03-.34.06-.29.07h-.14c-.11.04-.1.32-.22.36-.08.02-.22-.04-.29,0-.09-.34-.22-.83-.51-.94-.08-.03-.15.05-.22,0-.04.06-.22.11-.29.14M580.22,100.68s-.51.12-.72.14c.01.07-.07.26.07.22.08.1.14.24.22.36.41-.06.37.14.65-.29l.15-.07c.02-.06-.04-.3-.07-.22-.12-.05-.05-.14-.29-.14M583.55,91.27c-.08.12-.03.19-.07.36-.33-.09-.47-.06-.8-.14-.44.95-.28.68-1.38.72l-.36.14c-.06.01-.13-.06-.07-.07-.1-.05-.26.04-.36,0-.09-.04-.11-.5-.51-.36,0,0-.17.28,0,.22,0,0,.06.36.07.43-.33.24-.28.15-.51.51-.22-.06-.29-.05-.43-.14-.27-.18-.13-.34-.07-.29.02-.16.21-.15.14-.43-.02-.07-.25-.16-.29-.22-.06-.09-.04-.17-.07-.29-.02,0-.26-.05-.36-.07-.03.36-.06.73,0,1.16-.18.02-.63,0-.87.07-.1.03-.33.35-.43.43-.09-.04-.27,0-.36,0-.03-.12-.05-.25-.07-.43-.2-.05-.5-.25-.87-.14-.05.01-.19.21-.22.22h-.14c-.52.51.29.63.58.8.09.05.2.23.29.29-.12.08-.2.13-.29.22-.32-.22-.67-.49-1.23-.29-.12.04-.24.26-.36.29-.14.04-.3-.03-.43,0-.07-.29-.23-.86-.58-.87-.11,0-.21.11-.36.14-.02.08-.14.11-.14.14-.07.19-.06.51-.07.65-.53.14-.89.29-1.52.36-.11.28-.18.48-.29.72h-.14s0-.14,0-.14c-.12-.35-.47-.2-.72-.14-.09.55-.24.67-.43,1.09-.62-.21-.48-.19-.94,0,0,.13.03.3,0,.43l.22.07s0,.21,0,.22c-.37-.05-.57-.01-.87,0-.03.16-.2.14-.15.43,0,.02.23.28.22.29-.21.09-.31.58-.36.8-.6.15-.88.13-1.3.43.02.16-.06.35,0,.51.05.14.41.24.51.36.11.14.14.48.29.58.17.1.32-.02.43,0,.02,0,.08.13.14.14,0,0-.13.43-.07.43-.48-.05-.62-.05-1.09.07.03-.34.12-.83-.22-.94-.08-.03-.22.03-.29,0-.02.08-.14.11-.14.14-.12.33.16.47.07.8-.05.17-1.03.99-1.23,1.23.09.08.03.14.07.29.17.05.47.18.65.22-.83.21-1.24.5-.87,1.3-.25.18-.87.85-.8,1.3.02.1.26.22.29.29.03.08-.04.21,0,.29-.16.09-.98.7-1.01.8-.05.13.03.3,0,.43.03,0,.24.04.29.07.05.03.03.19.07.22-.12.19-.45.45-.51.65-.08.3.14.85-.15.94-.16.05.22.43.22.43v.07c.05.02.19.25.22.29.07.1.12.14.22.22-.15.22-.53.6-.36,1.09.02.05.18.14.22.22.2-.03.36-.07.51-.07v.72c.02-.16,0,.76.07.87.04.07.35.08.43.14.05.04.08.25.15.29.16.1.5.17.65.22,0,.19-.07.55,0,.72.08.21.42.19.65.29.07-.11.21-.18.29-.29.07-.09.09-.2.14-.29.06.17.21.68.36.8.25.2.52.12.87.07-.03.05.01.16,0,.22-.02.08-.3.3-.36.36.07.09.1.27.15.36.24,0,.44-.03.72,0,.11.01.29.21.58.14.06-.02.23-.27.29-.29.08-.03.21.03.29,0,.41.59.15.62,1.01.8.24-.35.46-1.08,1.16-.94.04,0,.21.27.29.29.27.06.42-.16.72-.07.07.02.15.25.22.29.12.07.23,0,.36.07.07.04.08.25.14.29.12.09,1.02.44,1.3.36.12-.04.2-.32.36-.36.39-.1.57.17.94.07.26-.07.42-.57.51-.8.99.13.66.02,1.23-.36.12-.08.26-.07.36-.14.06-.05.14-.27.22-.29.29-.1.64.07.94,0,.13-.03.26-.22.36-.29-.02-.12-.08-.33-.07-.36-.17-.08-.36-.22-.51-.29.24.02.58.1.72.07.26-.04.9-.54.94-.8.04-.24-.33-.52,0-.65.18-.07.46.03.65,0,.17-.03.5-.23.65-.29-.03-.09,0-.26,0-.36-.49-.23-.59-.25-1.09.07l-.07.14c-.26.04-.21-.13-.36-.14.02-.11.07-.34.07-.36.57.05.85.05,1.16-.29.55-.62.24-.79-.43-1.01.04-.08-.03-.13,0-.22.03-.08.26-.21.29-.29.03-.08-.03-.21,0-.29h.14s0,.26,0,.29c.1.05.17.05.22.14.39-.13,1.04-.39,1.09-.8.06-.62-.69-.6-1.09-.58.17-.41.22-.64.14-1.16.17-.06.25-.03.43-.07.02-.08.13-.12.14-.14.13-.38-.02-.37.22-.65.09-.11.25-.19.36-.29-.02.06-.14.25-.14.29-.04.24.14.3.07.51-.03.07-.3.24-.36.29.03.09,0,.26,0,.36.36.07.32.33.72-.07.13-.13.07-.24.14-.43.07.04.21-.03.29,0,.06.02.12.3.15.36.29-.14.66-.17.8-.43.03-.07.22-1.03.22-1.09-.01-.12-.2-.23-.15-.51,0,0,.33-.57.36-.65-.25-.07-.31-.16-.58-.22.04-.02-.04-.19,0-.22.11-.06.25-.05.36-.07,0-.08-.05-.44,0-.58.02-.06.23-.17.29-.22-.17-.36-.21-.57-.36-.94.16-.07.29-.05.43-.14.06-.04.15-.26.22-.29.23-.09.45,0,.65-.07.13-.05.22-.22.43-.22.45,0,.54.46.65.8.07-.04.24-.15.29-.14-.03-.39.02-.55.07-.87.01-.09-.07-.19-.07-.14v-.22c.25-.2.47-.38.72-.58-.03-.14.04-.3,0-.43l-.14-.14s-.07-.13-.07-.14c-.24.03-.5.14-.72.07-.04-.01-.16-.19-.22-.22.17-.28.21-.37.43-.58-.1-.38-.35-1.45-.29-1.81.05-.28.49-.5.58-.72.21-.57-.18-1.88-.51-2.03-.34-.15-.74.09-1.09-.07-.11-.05-.07-.26-.14-.36-.15-.21-.45-.14-.65-.29-.23-.17-.48-1.06-.72-1.16-.08-.03-.15.05-.22,0-.13.72-.11.69-.8.87-.05-.09-.07-.26-.14-.36-.06-.08-.34-.14-.36-.22-.08-.27.16-.41.07-.72-.03-.11-.28-.22-.36-.29,0,0,.07-.14.07-.14.18.01.41-.06.58,0,.14.05.25.39.43.43.92.23.73-.44.36-.72-.24-.19-.46-.27-.72-.43l-.14.07ZM538.66,90.33c-.1.1,0,.37-.07.51-.07.13-.45.31-.72.22,0,0-.14-.39-.36-.43-.21-.05-.48.07-.58.07l-.07.58-.36.43.22.07c.14.22.16.3.29.58-.08-.04-.21.03-.29,0-.25-.09-.52-.82-.8-.94-.35-.16-.96-.14-1.38-.22-.07.1-.19.15-.29.22,0,0,0,.21,0,.22.09.02.12.18,0,.14-.02,0-.06-.12-.07-.14-.2,0-.45,0-.65,0-.09.48-.29.69-.51,1.01-.09-.07-.2,0-.29-.07-.03-.02-.14-.27-.14-.29.49-.14-.82.03-.29.07-.12.03-.2,0-.29.07l-.43.51c-.11.2-.05.59-.29.72-.11.06-.42.06-.51.07-.36.93-.31.31-.87.58-.09.04-.14.29-.22.36-.07.06-.21.03-.29.07l-.07.14c-.32.2-.62.13-.94.14-.04.1-.07.31-.14.43-.12.19-.38.16-.58.29-.25.16-.84,1.1-1.01,1.16-.02,0-.31-.08-.43-.07-.27.02-.72.16-.94.22,0,.38.03.64.07.94-.17-.04.02.08-.14.07l-.14-.14c-.24-.07-.52.17-.58.29-.12.25-.02.48,0,.72.12,0,.31-.04.43,0-.07.83.02.84-.72.8-.02.05-.18.18-.22.22.08.28.06.42.14.72-.03,0-.31.05-.43.07,0,0,.03-.38-.72.14.11.8-.26,1.07-.14,1.95-.21.12-.46.31-.65.43.02.13-.03.23,0,.36.04.18.26.42.29.65.03.25,0,.47-.07.65,0,0-.14.07-.14.07-.08.45.1.98.14,1.38.09.03.19,0,.22.07.03.08-.04.21,0,.29-.05.06-.25.14-.29.22-.24.38-.01.72-.07,1.16,0,0-.13.06-.14.07v.14c-.02.11-.09.36,0,.58.02.05.18.1.22.14v.14c.75.05.76.06,1.16-.43.05.02.21.08.22.07-.03.1-.14.24-.14.29-.02.11.07.43.07.43.03.02.2.1.22.14.05.17-.02.4,0,.58-.66-.31-1.1-.24-.8.58.04.1,0,.17.07.22.13.08.33,0,.51.07.05.02.17.28.22.29.47.09.65-.39.8-.65.08.04.2.14.29.14-.25.5-.15.43,0,.87-.02,0,0,.2,0,.22-.04-.11-.08.19-.07.22.09.43.69.39,1.09.36-.02.04.01.17,0,.22-.08.19-.55.4-.72.51.04.12-.05.24,0,.36.02.07.42.41.51.43.3.07.83-.12,1.01-.22.07-.04.19-.27.29-.29.23-.04.31.09.51.14,0,0,0,.21,0,.22-.9.1-1.14.32-.65,1.01.39-.1.48-.05.87-.14.03.24.09.71.29.8.13.06.36-.02.51,0,.77.1.79.44,1.3-.29.37.04.6.1.87,0l.14-.14c.24-.03.49.13.65.14.21.01.28-.07.43-.07.05-.18.08-.34.14-.58-.12-.09-.23-.14-.36-.22v-.14c.24-.11.51-.29.72-.36.25-.08.64-.12.87,0l.14.14c.37.05.56-.18.8-.22.16-.03.43.06.58,0,.22-.1.21-.55.36-.72.16-.19.53-.28.72-.43-.07-.18.22,0,.22,0,.1.66,0,.55.65.65.11-.21.29-.64.58-.65.13,0,.04.1.22.07.04.1-.04.26,0,.36.01.04.18.14.22.22.08-.03.21.02.29,0,.23-.06.35-.59.43-.8.81-.03.64.04.94-.51.32.04.49.02.8,0,.02-.08.13-.12.14-.14.05-.16-.05-.35,0-.51.04-.13.35-.25.43-.36.09-.12.11-.34.22-.43.21-.19.55-.2.65-.51.05-.16-.03-.34,0-.51.01-.09.21-.35.22-.43.05-.55-.26-.6-.58-.8-.09.13-.19.24-.29.36.18.03-.22.14-.22.14.07-.39-.06-.38.36-.65.17-.11.28-.1.43-.22.05-.04.09-.19.14-.22.25-.12.55,0,.8-.14.12-.07.05-.29.14-.36-.11-.21-.03-.24-.22-.36-.11-.07-.22-.09-.36-.14.08-.05.13-.26.22-.29.21-.08.42.02.58-.07.14-.09.05-.23.15-.36.06-.09.31-.13.36-.22.07-.1.33-.88.29-1.09-.02-.12-.25-.21-.29-.29-.08-.17-.02-.28-.07-.51.1,0,.11-.14.14-.14.15-.04.21.12.29.14.44.1.53-.16.72-.29-.04-.31-.08-.69-.07-.94-.34-.17-.49-.07-.51-.58-.02-.5.25-.47.29-.65.03-.15-.07-.4-.07-.43-.05-.64.18-.7,0-1.3.1-.04.26,0,.36,0,.22-.46.19-.27.07-.8-.1-.03-.23-.02-.29-.07-.16-.15-.31-.41-.43-.58.31-.25.53-.5.87-.72-.04-.13.04-.24,0-.36-.01-.04-.2-.21-.22-.29-.07-.31-.03-.52-.07-.8.08,0,.39.05.58.07,0,0,.09-.33.07-.43,0-.04-.35-.93-.36-.94-.07-.07-.29-.1-.36-.14.11-.33.35-.94-.07-1.09-.12-.05-.24.04-.36,0-.05.14-.09.26-.14.36-.36.63-.06.04-.36.14,0-.13.03-.31,0-.43.02-.01.14-.06.14-.07.03-.11.07-.09.15-.14-.06-.16-.12-.32-.15-.43-.13.06-.58.25-.72.22-.02,0-.18-.21-.22-.22-.08-.02-.21.03-.29,0-.06.05-.23.34-.29.36-.08.02-.22-.04-.29,0,.25,0-.14-.94-.14-.94.37-.14.39-.18.65-.36-.03-.13,0-.31,0-.43-.32-.06-.38-.1-.8-.07-.09-.19-.07-.17-.22-.29-.22.14-.25.23-.58.36-.08.74-.04.73.58.72-.15.3-.12.41-.22.8-.18-.24-.44-.51-.72-.65h-.07c-.12-.25-.03-.6-.07-.87.15-.03.14,0,.22-.07.11-.1.35-.17.43-.29.03-.05.06-.3,0-.22-.02-.01-.1-.27-.15-.29-.34-.18-.87.07-1.16,0-.21-.05-.31-.51-.51-.58h-.14c-.04.07-.17.02-.22.07M560.23,81.2c-.07.2.05.36.07.51-.08.02-.12.13-.15.15-.26.09-.6-.07-.87,0-.15.03-.35.33-.51.36-.34.07-.51-.15-.8.07-.14.1-.43,1.02-.51,1.23-.08-.04-.14.03-.22,0-.08-.03-.19-.25-.29-.29-.66-.27-.64.28-.94.51-.11.08-.3.08-.43.14,0,0-.05-.21-.07-.29.09-.08.33-.17.36-.29.02-.08-.03-.21,0-.29-.06-.05-.13-.04-.14-.14-.13,0-.31.03-.43,0-.07.1-.26.24-.29.36-.01.05.03.17,0,.22-.05.08-.34.14-.36.22-.11.33.07.58.14.8h-.14c-.11.03-.32.41-.29.58,0,.06.19.17.22.22.02.05.03.26.07.29.06.05.17,0,.22.07-.13.27-.12.39-.22.72-.04-.02-.18,0-.22,0-.19-.4-.24-.25-.15-.87-.07-.03-.23-.2-.29-.22-.22-.06-.51.06-.72,0-.07-.02-.11-.26-.22-.29-.08-.02-.35.06-.29.07-.09.15-.19.3-.29.51-.01.02-.14.05-.14.07-.05.12.01.35-.07.43-.13.12-.37.03-.51.14-.1.08-.3,1.13-.14,1.23.22.14.36,0,.51-.07.11-.06.05-.14.07-.29.05.02.22.07.22.07-.04.22-.06.26-.07.51-.08.02-.12.13-.14.14-.22.07-.57-.06-.8,0l-.07.14c-.12.07-.22,0-.36.07.08-.39.12-.61.22-.94-.14-.06-.04,0-.07-.14-.35-.03-.65-.14-.87.14-.28.37-.18.74,0,1.09-.15.17-.4.38-.43.65-.01.09.04.29,0,.36-.02.02-.33.06-.36.07-.02.14-.02.32-.07.51.01,0,.26.05.29.07.08.07.07.3.14.36-.16,0-.97.07-1.16.22-.18.14.1.87,0,1.16-.05.15-.28.31-.36.43-.33.52-.57.92-.94,1.38-.06.07-.25.14-.29.29-.23.89.22.57.43.65.05.02.28.23.36.29-.13.28-.46.73-.22,1.16.04.08.24.12.29.22.05.11-.1.05-.07.22.07.43.55.43.94.43-.04.02-.28.21-.29.22-.7.21-.6-.1-.87.58-.32-.43-.57-.53-1.23-.65-.05.11-.13.14-.22.22.13.33.14.49.29.8-.12.08-.35.18-.43.29-.08.1-.06.28-.14.36-.07.07-.2.02-.29.07-.09.06-.22.27-.29.36.03.05,0,.23,0,.29.37.09.41.13.87.07-.04.08.03.13,0,.22l-.14.07c-.16.24-.08.38-.14.72.05.02.26.11.29.14.2.28.31.52.51.8-.14.09-.53.26-.58.43-.04.12.04.24,0,.36.19.05.52.12.72.22.04.02.15.2.22.22.13.03.23-.03.36,0-.04.17-.08.33-.14.58-.18,0-.2-.14-.43-.07-.04.01-.15.18-.22.22.28.51-.03.37.72.43.07.19.15.41.22.58h.07c.06.31-.1.41-.07.72.02.26.25.78.29,1.01.03.17-.06.35,0,.51,0,.03.13.07.14.14.6-.21.18.12.58-.36.08.04.13-.03.22,0,.02,0,.17.21.22.22.31.07.36-.13.65,0,.32.14-.03.36-.07.51-.02.08.03.21,0,.29.53.38.73.6,1.52.58.04-.1.07-.27.14-.36.05-.08.24-.08.29-.14v.8c.02.09.42.58.51.72.19-.02.38,0,.58,0,.02-.05.1-.28.14-.29.65-.15.83.56,1.16.65.21.05.32-.04.51-.07.07.09.11.32.22.36.08.02.21-.04.29,0,.01-.08.13-.12.15-.14.04-.12-.04-.24,0-.36-.07-.01-.39-.02-.51-.07-.13-.06-.18-.4-.29-.43h-.14c-.04-.08.04-.22,0-.29.05-.08.17-.2.22-.29.09.09.3.1.36.22.04.07-.02.21,0,.29.03.11.23.2.29.29.14-.03.29.03.43,0,.25-.06.31-.35.65-.36.39-.02.76.36,1.3.22.37-.1.28-.57.51-.72.25-.17.61-.04.94-.14.08-.03.2-.18.29-.22,0-.06-.03-.24,0-.29.04-.08.17-.05.22-.14.34.11.77.35,1.16.14.09-.05.14-.31.22-.36.07-.06.21-.03.29-.07.07-.04.22-.25.29-.29.17-.09.34-.08.51-.14,0,0,.09-.34.07-.43-.03-.11-.27-.21-.29-.29-.06-.21.09-.18.07-.36.1-.07.15-.19.22-.29.28.04.6.13.87,0,.16-.08.11-.24.22-.36.14-.17.47-.31.65-.43-.03-.24-.1-.47-.07-.65.03-.16.29-.32.36-.43.09-.16.07-.27.15-.43-.02-.02-.21-.12-.22-.14-.03-.08.04-.14,0-.22.58-.41.69-.63,0-1.01.43-.22.8-.45,1.23-.65-.03-.09,0-.26,0-.36-.09-.04-.21-.19-.29-.22-.29-.09-.47,0-.65-.14-.08-.07-.04-.24-.07-.36-.16.06-.11-.2-.15-.29.01,0,.41.03.29.07.47-.05,1.28-.11.87-.72-.04-.06-.27-.09-.29-.14-.05-.14.13-.35.07-.58-.05-.18-.32-.22-.36-.29-.15-.23-.21-.29.07-.43-.04-.5-.06-.48.22-.72.02-.02.19,0,.22,0,.01-.08,0-.41.07-.51l.43-.22c-.1-.3-.22-.6-.14-.8.02-.06.21-.24.22-.29.03-.17-.1-.11-.07-.22-.08.02-.28.07-.29.07-.18.61-.11.82-.51.29-.19.02-.17.09-.29.14,0,0-.01-.45,0-.58.58-.13.36-.03.65-.43.06.05.14-.03.22,0,.07.03.09.25.14.29.34.24.79.07,1.09,0-.03-.14.04-.3,0-.43-.03-.08-.26-.25-.29-.36-.02-.08-.04-.4.07-.36v-.14s-.21-.19-.22-.22c-.02-.04.02-.18,0-.22.54-.24.61-.28.87-.8l.14-.14c.02-.16-.13-.28-.07-.51.03-.13.27-.28.29-.43.02-.16-.12-.34-.07-.58.03-.14.33-.39.36-.51.04-.16-.03-.35,0-.51-.48-.28-.45-.16-.51-.87.12-.07.04-.06.07-.22h.14c0,.14-.01.36,0,.58.01,0,.4-.01.29-.07.03-.09.14-.37.22-.43,0-.01,0-.2,0-.22-.03-.12-.21-.26-.29-.36.06-.1.17-.2.22-.29.05-.09.2-.3.22-.36.08-.34-.14-.63-.14-.8-.01-.29.18-.44.14-.8l-.14-.22c-.17-.8-.04-.68-.8-.87-.03.14-.11.41-.14.58-.14.04-.09-.06-.14.07-.25-.01-.57-.06-.72-.07.03-.55,0-.75-.14-1.23-.21-.05-.57-.25-.87-.14-.05.02-.14.18-.22.22,0,.17.02.34,0,.51h-.14c-.07-.15,0-.23-.07-.36-.1-.18-.47-.34-.51-.58-.07-.41.2-.42.15-.8-.02-.1-.63-.92-.72-.94-.4-.09-.46.19-.65.29-.24.12-.51.19-.72.29.12.48.4,1.36-.51,1.16-.32-.07-.23-.29-.36-.58-.02-.05-.21-.1-.22-.14-.07-.33.18-.62,0-.94-.1-.19-.36-.13-.58-.22-.02.04-.2.1-.22.14"/>
        <path class="cls-1" d="M568.23,145.89c.73,0,1.36.57,1.36,1.34,0,.78-.63,1.35-1.36,1.35s-1.36-.57-1.36-1.35c0-.77.63-1.34,1.36-1.34M568.23,146.1c-.62,0-1.1.48-1.1,1.12,0,.65.48,1.13,1.1,1.13.62,0,1.1-.47,1.1-1.13s-.48-1.12-1.1-1.12M567.95,148h-.24s0-1.55,0-1.55h.59c.37,0,.55.14.55.44,0,.28-.17.4-.41.43l.44.68h-.26s-.41-.67-.41-.67h-.27v.67ZM567.95,147.14h.28c.29,0,.38-.08.38-.25,0-.15-.07-.23-.34-.23h-.32v.49Z"/>
      </g>
    </g>
    <path class="cls-1" d="M85.06,95.82l-2.08,14.56,22.97.09-1.74,11.78-22.88-.08-3.55,25.3h-13l9.02-63.87h40.29l-1.82,12.22h-27.21Z"/>
    <g>
      <path class="cls-1" d="M129.91,112.01c2.54-10.82,10.8-16.97,19.03-16.97,9.71,0,15.42,6.76,15.42,16.72,0,.08,0,.16-.01.24h13.76c0-.23.03-.45.03-.68,0-17.24-11.18-28.86-28.51-28.86-15.91,0-30.46,11.03-33.65,29.54h13.92Z"/>
      <path class="cls-1" d="M161.36,124.8c-3.72,7.13-10.37,11.14-17,11.14-7.58,0-12.74-4.29-14.53-11.14h-14.12c2.02,14.42,12.72,23.88,28.14,23.88,14.12,0,27.24-8.84,32.2-23.88h-14.68Z"/>
    </g>
    <g>
      <path class="cls-1" d="M201.22,112.01l2.35-16.88h11.7c6.67,0,9.19,3.37,9.02,8.23-.07,3.46-1.71,6.93-5.7,8.65h17.54c1.28-2.72,1.99-5.79,2.03-9.09.08-13-8.58-19.33-20.02-19.33h-25.91l-3.97,28.41h12.96Z"/>
      <polygon class="cls-1" points="211.49 124.8 217.88 147.47 232.26 147.47 225.26 124.8 211.49 124.8"/>
      <polygon class="cls-1" points="186.47 124.8 183.3 147.47 196.22 147.47 199.37 124.8 186.47 124.8"/>
    </g>
    <g>
      <polygon class="cls-1" points="321.77 112.01 334.38 83.6 320.51 83.6 308.48 112.01 321.77 112.01"/>
      <polygon class="cls-1" points="263.6 112.01 259.77 83.6 245.47 83.6 249.98 112.01 263.6 112.01"/>
      <polygon class="cls-1" points="301.22 112.01 297.28 83.6 282.9 83.6 270.76 112.01 301.22 112.01"/>
      <polygon class="cls-1" points="252.01 124.8 255.61 147.47 268.35 147.47 279.58 124.8 252.01 124.8"/>
      <polygon class="cls-1" points="303.06 124.8 303.01 124.94 302.99 124.8 288.61 124.8 293.39 147.47 306.04 147.47 316.1 124.8 303.06 124.8"/>
    </g>
    <g>
      <polygon class="cls-1" points="352.13 112.01 356.43 103.11 358.2 112.01 370.95 112.01 364.75 83.6 352.88 83.6 339.16 112.01 352.13 112.01"/>
      <polygon class="cls-1" points="332.98 124.8 322.03 147.47 335.11 147.47 345.98 124.8 332.98 124.8"/>
      <polygon class="cls-1" points="360.72 124.8 365.1 147.47 378.7 147.47 373.75 124.8 360.72 124.8"/>
    </g>
    <g>
      <path class="cls-1" d="M404.28,112.01l2.35-16.88h11.7c6.67,0,9.19,3.37,9.01,8.23-.06,3.46-1.71,6.93-5.7,8.65h17.54c1.28-2.72,1.99-5.79,2.02-9.09.08-13-8.58-19.33-20.02-19.33h-25.91l-3.97,28.41h12.97Z"/>
      <polygon class="cls-1" points="414.54 124.8 420.93 147.47 435.32 147.47 428.32 124.8 414.54 124.8"/>
      <polygon class="cls-1" points="389.53 124.8 386.36 147.47 399.27 147.47 402.42 124.8 389.53 124.8"/>
    </g>
    <g>
      <path class="cls-1" d="M463.29,112.01l2.31-16.28h10.05c9.93,0,15.85,6.65,16.1,16.28h13.69c-.28-17.15-12.04-28.41-28.31-28.41h-22.79l-3.97,28.41h12.93Z"/>
      <path class="cls-1" d="M488.75,124.8c-3.64,6.55-10.36,10.7-18.91,10.7h-9.88l1.52-10.7h-12.91l-3.17,22.67h26.95c15.12,0,26.81-9.15,31.19-22.67h-14.8Z"/>
    </g>
  </g>
  <g>
    <g>
      <path class="cls-1" d="M7.47,8.08v21.8h25.1l-.09,6.69H7.47v27.01H0V1.04h37.34l-.09,7.03H7.47Z"/>
      <path class="cls-1" d="M48.89,63.57V1.04h7.47v62.53h-7.47Z"/>
      <path class="cls-1" d="M110.37,56.53v7.03h-37.78V1.04h37.69v7.12h-30.31v20.67h27.44v6.6h-27.44v21.1h30.39Z"/>
      <path class="cls-1" d="M156.75,37.08l12.5,26.49h-8.42l-11.64-25.36h-17.37v25.36h-7.47V1.04h23.88c13.29,0,21.02,6.95,21.02,18.5,0,8.94-4.69,15.37-12.5,17.54ZM161.35,19.63c0-7.38-4.69-11.81-13.11-11.81h-16.41v23.62h16.5c8.6,0,13.03-4.6,13.03-11.81Z"/>
      <path class="cls-1" d="M226.91,20.76c-2.61-8.42-9.73-13.46-19.1-13.46-13.2,0-21.88,9.99-21.88,25.01s8.94,24.92,21.8,24.92c9.46,0,16.93-5.21,19.45-12.42l7.03,3.04c-3.91,10.33-14.24,16.67-26.57,16.67-17.45,0-29.53-12.77-29.53-32.22S190.18,0,207.81,0c13.37,0,22.93,7.47,26.14,18.15l-7.03,2.61Z"/>
      <path class="cls-1" d="M284.31,56.53v7.03h-37.78V1.04h37.69v7.12h-30.31v20.67h27.44v6.6h-27.44v21.1h30.39Z"/>
      <path class="cls-1" d="M331.47,56.79v6.77h-33.17V1.04h7.47v55.75h25.71Z"/>
      <path class="cls-1" d="M338.15,1.04l16.59,29.53,16.59-29.53h8.16l-21.02,36.65v25.88h-7.47v-25.88L329.73,1.04h8.42Z"/>
    </g>
    <g>
      <g data-name="Paw_x5F_RGB_x5F__x5F_Orange" id="Paw_x5F_RGB_x5F__x5F_Orange-2">
        <g>
          <path class="cls-1" d="M527.66,137.6s.2.1.22.14c.04.13,0,.18-.07.22,0,0,.12.35.14.43-.11-.07-.16-.03-.29-.07-.02-.1-.14-.16-.15-.22-.04-.21.12-.38.15-.51M527,137.6c.1.03.4.41,0,.29-.1-.03-.2-.35,0-.29M563.64,137.17s-.05.25-.07.36c.49.39,1.27.88.8-.29-.31-.04-.45-.03-.72-.07M565.52,136.73c-.28.27-.48.55-.72.87,0,0,.14-.15.14-.15.26-.09.45-.13.87-.14-.04-.23-.05-.31-.07-.58-.01,0-.22,0-.22,0M564.29,135.07c.03.12,0,.3,0,.43.71.18.45.37.65-.36-.07-.05-.12-.05-.14-.14-.12-.04-.2-.01-.29-.07-.02.04-.17.11-.22.14M565.01,129.42s0,.18,0,.22c.08.04.22.2.29.22.77.17.46-.56.36-.8-.06,0-.24.03-.29,0-.09.12-.27.24-.36.36M563.42,123.41c.12.26.12.68.65.51.05-.02.14-.18.22-.22,0-.1-.03-.27,0-.36-.07-.05-.24-.27-.29-.29-.08-.03-.15.05-.22,0-.1.12-.26.24-.36.36M573.48,120.01c.22.41.43.66.51,1.23.07.01.18.14.22.14.4.07.66-.22.87.29.12.3-.02.86.36.65.11-.06.12-.66.14-.8-.5-.13-.85-.35-1.16-.65.02-.05.08-.21.07-.22-.06-.09-.87-.56-1.01-.65M559.44,118.78v.14s-.09.26-.07.36c.02.12.21.36.29.51h.15s.09.2.14.22c.08.03.21-.04.29,0,.02-.04.22-.29.22-.29.02-.18-.13-.15-.14-.22-.05-.18.09-.28.07-.36-.03-.14-.6-.52-.94-.36M586.66,117.19c-.04.08-.2.16-.22.22-.06.18-.05.44-.07.58-.25.08-.5.19-.72.29.18.29.27.56.58.72,1.31.71.66-1.11.58-1.81h-.14ZM562.19,116.39c-.02.06-.17.18-.22.22.16.33.23.75.72.58.14-.05.12-.22.22-.29-.07-.05-.14.03-.22,0-.17-.07-.2-.45-.36-.51h-.15ZM562.99,115.45c-.04.09-.13.1-.22.14.06.16.04.29.07.43.12.01.07.09.14.14.03-.03.24,0,.29,0-.04-.29-.03-.46-.07-.72-.01,0-.22,0-.22,0M586.88,114.15s.05.21.07.29c-.08.02-.12.13-.15.14-.19.06-.44.05-.58.07-.05.67-.25.98-.22,1.52-.29-.54-.49-.5-.94-.14-.07-.09-.12-.31-.22-.36-.23-.13-1.27-.06-1.67-.14-.02.08-.14.11-.14.14-.09.26,0,.73,0,1.01-.01,0-.14.07-.14.07-.05-.11-.14-.14-.22-.22.19-.62.02-1.45-.72-.94-.09.06-.07.29-.14.36-.07.07-.29.11-.36.14.05.2-.02.34.07.51.14.26.77.22.87.51.04.12-.05.24,0,.36-.02,0-.2-.02-.22,0-.23-.21-.31-.34-.43-.65-.24-.03-.65.01-.94-.07-.03,0-.17-.21-.22-.22-.27-.05-.37.17-.65.07-.03-.01-.07-.13-.14-.15.38-.22.35-.18.29-.72l-.22-.07c-.06.09-.17.07-.22.14-.04.06-.02.32-.07.36-.17.14-.43-.03-.58.22-.06.1-.19.69-.22.8-1.4-.41-.88.65-1.74.65,0,0-.18-.07-.22-.07v-.14c.1-.03.26,0,.36,0-.03-.02.06-.13.07-.14-.07-.06-.11-.04-.14-.14-.29-.05-.73-.18-.94-.14-.14.02-.32.29-.43.36-.27.16-.56.14-.87.29-.05.02-.15.2-.22.22-.24.05-.3-.14-.51-.07-.02,0-.13.19-.14.22-.26.33-.2.49,0,.87-.17.04-.33.08-.58.15.03-.08-.03-.21,0-.29,0-.02.19-.13.22-.14-.05-.12.04-.24,0-.36-.02-.04-.19-.15-.22-.22-.15.06-.31.05-.43.07-.03.29-.11.79-.14,1.09-.22,0-.21-.03-.43,0,.04.1-.04.26,0,.36.04.11.39.22.51.29,0,.01-.03.41-.07.29-.05.08.03.13,0,.22-.02.04-.18.15-.22.22h-.14c-.11-.23-.16-.4-.29-.58-.33-.43-.27-.18-.8-.36-.02,0-.12-.21-.14-.22-.13-.05-.24.04-.36,0-.04.08-.2.16-.22.22-.07.21.02.42-.07.58-.14.25-.49.15-.72.29-.28.16-.43.8-.51,1.16-.58-.27-.22-.27-.8,0,.03.12-.04.17-.07.29.3.21.31.24.65.29-.02,0-.02.26-.07.29-.09.04-.27,0-.36,0-.04.08-.2.21-.22.29-.07.29.13.59.14.8,0,.14-.08.21-.07.29h-.14c-.15-.05-.29-.46-.43-.51-.23-.07-.26.08-.43.07-.19.62-.24.57.22.94-.15.13.03.95.07,1.23-.11-.11-.25-.18-.36-.29.15,0-.4-.06-.22,0-.08.07-.21,0-.29.07v.15c-.23.65.2.73.43,1.3-.02.02.01.19,0,.22-.04.09-.38.19-.43.29-.04.07.01.21,0,.29-.01.07-.21.34-.22.36-.04.14.03.29,0,.43.13.11.41.29.51.43.08.12.05.27.14.36.1.1.27.1.36.22.21.29.4,1.05.51,1.45.11.02.26,0,.36.07-.03.03-.05.19-.07.22-.07.1-.31.12-.36.22-.13.22.02.79,0,1.16.13.05.03,0,.07.14.29,0,.45.05.8,0-.03.08.02.21,0,.29-.06.23-.49.4-.22.8.04.06.27.08.29.14.1.35-.24.54.07.72.09.05.4.12.51.14-.03.26-.15.6,0,.87.02.04.2.1.22.14.05.17-.07.42,0,.58.02.04.11.04.14.07.19.17.38.14.58.29.07.05.02.13.07.22.28.46.67.2,1.01,0-.04.5-.06.69-.15,1.16.05.01.43.11.36.07.2-.13.43-.09.51-.36.02-.08-.04-.22,0-.29.04-.07.26-.03.29-.07.03.06-.02.16,0,.22.01.05.21.19.22.22.02.12-.1.42-.07.43-.05.01-.14.12-.14.15.01.01,0,.2,0,.22.36.16.45.21,1.01.15,0,.04-.03.34,0,.36-.06.09-.21.15-.29.22.02.07,0,.22,0,.29.1.04.09.12.14.22.4-.07.42-.07.65-.22.07-.05.31-.15.36-.22.13-.19.03-.4.22-.51.09-.05.25.03.36,0l.15-.14c.38-.09.24.03.51.07-.04.12,0,.31,0,.43-.2.07-.41.15-.58.22.01.12.07.51.07.51.11.02.23.11.43.07.1-.02.26-.23.36-.29.45-.28.71-.11,1.23-.29.03-.01.07-.13.14-.15-.03-.16.07-.36,0-.51h-.07c-.13,0-.26-.17-.36-.22,0-.13.03-.31,0-.43.07-.06.1-.22.22-.22h.07c.14.13.31.45.51.51.08.02.21-.03.29,0-.09.26-.06.37-.14.65.26.11.69.36,1.09.15.35-.19.1-.47.07-.65-.03-.19.08-.27.07-.36.48-.03.89-.1,1.38-.29.02-.01.05-.14.07-.14h.15c.11-.18,0-.42.07-.65.05-.16.29-.24.36-.36.07-.15,0-.22.07-.36.31.01.98.04,1.3-.15.15-.09.22-.33.36-.43.06-.05.14.03.22,0,.47-.18.15-.65,0-.87.25-.07.72-.14.8-.36.04-.12-.06-.33,0-.43h.07c.29-.15.5-.44.72-.65.07.03.21-.03.29,0,.18.06.22.43.65.29.05-.02.14-.18.22-.22-.07-.11,0-.27-.07-.36-.03-.05-.4-.2-.43-.29-.03-.08.05-.15,0-.22.68-.18.81-.15.72-.94.24-.15.48-.19.72-.36.07-.05.06-.16.14-.22-.05-.34-.14-.79.15-.94.53-.28.69.17.94.22.3.06.34-.11.51-.14-.02-.17.09-.12.07-.29,0-.07-.16-.23-.14-.36,0-.03.21-.2.22-.22.03-.09-.04-.14,0-.22-.12-.05-.31-.15-.43-.22.21-.46.18-.61,0-1.09.24.13.47.26.72.36-.02,0,.36,0,.43,0,.05-.12.28-.81.36-.87.19-.13.45-.03.65-.14.15-.09.06-.41,0-.36.03-.12-.04-.25,0-.36,0-.03.13-.07.15-.14.57.04.66,0,1.01-.14.06-.52.06-.74-.29-1.01-.04-.03-.2-.1-.22-.14-.05-.16.02-.34,0-.51.12-.03.12.06.14-.07.12.05.24-.05.36,0,.09.04.06.31.15.36.42.29.97.09,1.09-.29.09-.28-.04-.27-.07-.51h-.14s.07-.58.07-.58c-.26.02-.3.01-.43,0-.05-.12.04-.24,0-.36-.02-.05-.19-.1-.22-.14-.08-.12,0-.22-.07-.36.08-.04.13-.2.22-.22.05-.01.17.03.22,0,.13-.1.21-.45.36-.51.16-.06.47,0,.65,0,.11-.39.24-.7.36-1.01-.05-.04-.08-.25-.14-.29-.14-.08-.33-.08-.43-.14-.42-.27.48-.48.65-.65.07-.07,0-.22.07-.29-.08-.02-.98-.2-1.01-.22-.04-.02-.25-.57-.29-.65.36-.12.41-.19.65-.36-.11-.09-.1-.27-.22-.36-.1-.08-.17-.04-.29-.07,0-.01-.05-.26-.07-.36.23-.11.39-.18.58-.29-.04-.1.04-.26,0-.36-.02-.05-.19-.1-.22-.14-.1-.16-.16-.43-.22-.58-.04.12-.07-.22-.07-.22.31-.18.08-.61-.29-.58l-.14.14c-.14.07-.24.09-.36.14,0,.01,0,.47,0,.43.04.09.18.15.22.22.07.15.03.3.07.43-.16-.14-.29-.22-.43-.36-.12.04-.24-.05-.36,0-.09.03-.2.33-.29.36-.12.04-.24-.05-.36,0,0-.02-.07-.15-.07-.15-.04.11-.07-.28-.07-.29.02-.01.21-.13.22-.15.05-.18-.09-.28-.07-.36h-.14c-.1.03-.19.37-.29.43-.05.03-.17-.01-.22,0-.05.01-.24.2-.29.22-.43.14-.83.14-1.38.14-.13.27-.12.26-.22.65-.01,0-.22,0-.22,0-.02-.17-.07-.52-.07-.8.16-.06.22-.03.43-.07-.03-.33-.03-.71-.14-1.09.34.06.38.11.72,0l.07-.14c.12-.05.37,0,.51,0-.01-.07.1-.14.07-.29-.06-.3-.47-.58-.65-.8-.08.11,0,.18-.07.29-.06.08-.14.01-.22.07-.09.06-.15.27-.22.36-.01-.02-.2-.05-.22-.07-.06-.06-.05-.19-.07-.29-.08-.02-.12-.14-.14-.15-.27-.09-.42.1-.58.15l-.07-.07c.02-.44-.02-.49-.07-.8-.06,0-.24.03-.29,0-.06.09-.25.17-.29.29M556.47,110.53s0,.94,0,.94c-.04.05-.18.09-.22.14-.03.05-.03.33-.07.36-.11.09-.18.04-.36.07.09.05-.17.09-.22.07-.03-.01-.07-.12-.15-.14.05-.38.15-.8-.22-.94-.14-.06-.17.1-.36.07-.06-.01-.23-.21-.29-.22-.57-.12-.82.26-1.09.43-.07-.05-.14.03-.22,0-.11-.04-.19-.31-.29-.36-.26-.12-.9-.07-1.16.07-.35.19-.16.96-.36,1.3-.03.05-.5.43-.58.51-.08-.08-.36-.41-.43-.43-.76-.22-1.22,1.08-1.59-.29-.04,0-.28-.11-.43-.07l-.07.14c-.24.15-.44.47-.07.65.06.03-.1.08-.07.14-.16.04-.35.17-.51.14-.19-.04-.16-.36-.58-.29-.1.02-.61.5-.65.51-.16.03-.5-.05-.72-.07l-.07.22c-.57.15.05-.29.15-.36-.02-.11-.08-.34-.07-.36-.29-.05-.38-.03-.65-.07-.02.09-.09.1-.14.14.07.29.07.42.14.65-.18.08-.43.05-.51.22-.07.14-.06.55-.07.65-.15-.05-.14.12-.29.07-.09-.03-.15-.32-.29-.36-.38-.11-.72-.02-1.09-.07-.06.73-.4,1.2-.72,1.67-.03-.02-.18,0-.22,0-.15-.32-.13-.26-.22-.72-.12-.03-.11.05-.14-.07-.07.04-.21-.03-.29,0-.03,0-.07.12-.14.14,0,0,0,.34.07.22-.02.07-.07.29-.07.29-.17.02-.35-.05-.51,0-.1.03-.19.32-.29.36-.53.23-.99-.07-1.38-.22-.15.21-.26.25-.36.58,0-.06.03-.49,0-.58-.01-.04-.13-.05-.14-.14-.1.04-.26-.04-.36,0-.06.02-.19.16-.29.22-.07-.05-.14-.25-.22-.29-.1-.05-.86-.19-1.01-.14-.01,0-.06.13-.07.14-.42.37-.2.28-.14.72l.07.29s.34,0,.22-.07c.08,0,.2,0,.29,0,0,.02-.01.29,0,.29-.17-.03-.12.1-.29.07-.06-.01-.23-.28-.29-.29-.22-.05-1,.2-1.16.29-.07.04-.02.16-.07.22-.09.08-.25.07-.36.14-.05.03-.1.2-.15.22-.04.02-.18-.02-.22,0-.05-.13-.11,0-.14-.07-.03-.06,0-.23,0-.29-.13-.03-.04-.03-.07-.14-.13,0-.32.04-.43,0-.16.22-.34.53-.58.65-.35.18-1.18.22-1.38.51-.08.11,0,.18-.07.29-.13-.05-.06.08-.07.14-.19-.06,0,.22,0,.22.19.06.24-.08.43-.07,0,0,0,.22,0,.22-.18.05-.16.02-.36.07.11.07-.2.07-.22.07l-.07-.36c-.05-.03-.34.04-.36,0-.06-.12,0-.44,0-.58-.78-.17-.53-.12-.87.51-.01.02-.22.21-.22.22-.06.26.11.49.07.65-.02.08-.19.14-.22.22-.09-.04-.26,0-.36,0,.01-.2.03-.29.07-.51-.06-.05-.13-.04-.14-.14-.14,0-.51.07-.51.07,0,0-.21.06-.22.07-.1.1-.05.41-.14.51-.14.14-.43.09-.58.22-.05.04,0,.19-.07.22-.1.04-.26-.04-.36,0,.07-.04-.14-.14-.14-.14.01-.02.14-.22.14-.22.26-.08.51-.04.65-.22.01-.02.14-.22.14-.22.02-.11-.07-.43-.07-.43-.69,0-1.08.08-1.45.58-.06.08-.06.25-.14.29-.22.1-.48-.03-.65.07-.09.05-.37.91-.29,1.16.02.05.18.14.22.22.13,0,.3-.03.43,0,0,.01-.09.14-.07.14-.55.1-.57.22-.8.65-.72,0-.83.06-1.01.58v.14c-.15.12-.43.04-.58.14-.36.25-.07,1.26-.07,1.88.31.09.76.23.87.51.03.08-.05.14,0,.22-.17.12-1.13.97-1.16,1.09-.07.23.05.38.07.58.1,0,.24.11.43.07.15-.03.19-.22.29-.29,0,0,.32.11.22.14.04.03.19.09.22.14.08.16.02.28.07.51-.1.02-.11.14-.14.22-.08-.04-.17-.2-.22-.22-.15-.05-.35.02-.51,0-.08.24-.33.67-.29.94,0,.05.2.19.22.22.11.24-.02.25,0,.51-.09-.05-.06.11-.22.07-.02,0-.08-.13-.14-.14.29-.11-.41-.11-.22-.07l-.07.29c.29.18.82.3,1.01.58.11.15.07.39.22.51.23.19.51.08.58.43.08.41-.21.53-.15.87.03.18.36.29.43.43.05.12.14.52.14.58.03.33-.08,1.14.07,1.52h.07c.22.11.38.51.58.58h.14s.02.19.07.22c.16.08.34-.02.51.07.13.07.72.9.43,1.16.36.28,1.09.47,1.01,1.16,0,0-.19.3-.22.36.09-.05.06.11.22.07.08-.02.1-.21.14-.29.06,0,.24.03.29,0,.15.15.74.59.22.72-.05-.06-.14-.26-.22-.29-.08-.03-.21.03-.29,0-.04.07-.16.17-.22.22,0,0,0,.26.07.14.05.17.03.12.07.29.14-.07.07.51.07.51.44-.14.59-.18,1.09-.14.01-.02.06-.14.07-.14.07-.02.36.05.29.07.11.19.24.34.36.51-.33.1-.72.11-.8.43-.01.04.02.18,0,.22-.05.07-.26.13-.29.22-.04.1.04.26,0,.36.13-.06.24,0,.36-.07.13-.08.24-.34.36-.43.24-.2.48-.31.72-.51.17.24.37.59.58.8.09.09.39.18.43.29.08.21-.09.27-.07.43l.14.22c.11.53.03.4.22.8.08-.03.21.02.29,0,.2-.05.42-.38.58-.51.55.49,1,.89,1.88.43-.05.43-.09.85.29,1.01.12.05.22-.02.29.07.05.07.18.57.22.65.82-.12,1.04-.02,1.59.29.11-.07.41-.39.58-.36,0,0-.06.35-.07.43.05.03.4.24.43.29.06.11-.03.31,0,.43.03.12.35.35.36.43.03.17-.11.27-.14.43.2-.05.5-.18.72-.14.2.03.36.34.51.43.12.07.23,0,.36.07.2.11.56.87.65,1.16.27-.09.78-.22,1.09-.22.09,0,.25.15.43.07v-.07c.12-.06.13-.23.22-.29.12-.08.22,0,.36-.07.22.72-.07.46.65.65.02-.02.12-.21.14-.22.08-.03.14.04.22,0,.06.05.15.25.22.29.2.11.78.12,1.01.15.02.16-.06.35,0,.51.11.31,1.45.56,1.88.65.03.13-.03.23,0,.36,0,.01.63.64.65.65.64.29.66-.2.94-.29.58-.18.79.17,1.01.29.12.07.23,0,.36.07.04-.11.12-.1.22-.14-.06-.4-.04-.63-.07-.87.12.03.17-.04.29-.07.06.11.24.53.36.58.41.15.95-.14,1.23-.14.49-.02.55.16.8.36.68-.3.74-.02,1.52-.14.07-.01.39-.21.43-.22.25-.04.5.1.65.07.07-.01.21-.18.29-.22-.03-.13.03-.24,0-.36,0-.03-.72-1.05.22-.8.03,0,.16.21.22.22.15.03.22-.09.29-.07-.08-.06.06-.31.07-.36-.08-.04-.03-.13-.07-.14-.13-.06-.24-.04-.36-.07,0-.15-.08-.22-.07-.29.02-.26.46-.39.58-.58.09-.14.05-.35.14-.51.11-.19.96-.56,1.3-.51.03,0,.2.21.22.22.07.02.22-.04.29,0,.1.06.18.32.29.36.05.02.16-.04.22,0,.06-.82.03-.63.65-.65,0,.19.05.46,0,.65,0,0-.21.13-.22.14.13.49-.03.35.29.65-.08.02-.11.13-.14.14-.11.04-.25-.03-.36,0,.12.04-.28.07-.29.07-.02-.05-.03-.16-.07-.22-.36-.53-.27-.51-1.16-.51-.05.14-.05.38-.14.51-.08.1-.33.13-.43.22-.11.09-.07.07-.14.22,0,0,0,.21,0,.22.05,0,.25-.03.29,0,0,.02.05.25.07.36-.36,0,.03.57.07.65-.24.19-.43.38-.65.58.04.13.09.16.07.29.75.44.9.36,1.3-.36.05.06.24.08.29.14.06.09.01.2.07.29.29.47.64.24,1.01.07-.06-.55-.01-.64.07-1.01.07.04.21-.03.29,0,.11.05.21.39.36.43.55.14.62-.28.87-.43.13-.08.23,0,.36-.07.13-.07.25-.28.36-.36.06.03.16-.02.22,0,.12.03.2.25.29.29.24.11.38.01.65,0,.01-.05.14-.2.14-.22.1-.39-.22-.58.07-.8.07.03.21-.03.29,0,.11.04.13.3.22.36.39.28.7,0,1.01-.14,0-.21,0-.44,0-.65-.16-.07-.6-.2-.65-.36-.03-.08.03-.21,0-.29.19.05.16-.12.36,0,.24.14.1.47.58.43.28-.02.55-.34.65-.58,0,0,.18-.1.07-.14-.12-.06-.26-.29-.22-.51,0-.03.2-.12.22-.14.17-.23.13-.4.22-.72-.06-.05-.13-.04-.15-.14-.02,0-.2.01-.22,0v-.22c.99.46,1.1.05,2.03-.22.02-.13,0-.41.07-.58.03-.08.26-.19.29-.29.04-.15-.03-.29,0-.43-.07-.05-.12-.05-.14-.14-.1,0-.28.04-.36,0-.05-.02-.12-.27-.14-.29.07,0,.17-.11.22-.14.4.27.24.24.8.22-.02-.17.09-.12.07-.29,0-.07-.21-.26-.22-.29-.05-.26.12-.32.14-.43.03-.14-.04-.3,0-.43.04-.16.27-.3.36-.43-.03-.05.01-.17,0-.22-.04-.17-.37-.28-.51-.36.18-.6.4-.8.51-1.52-.06-.01-.19-.14-.22-.14-.43-.1-.65.34-.87.51-.04.03-.12.18-.14.22-.03-.15-.08-.49-.14-.72-.02-.06-.21-.23-.22-.29-.07-.43.35-.49.43-.8v-.07c-.01.05-.09-.21-.07-.29.03-.12.59-1.11.29-1.3-.43-.27-.69.16-.94.22-.04,0-.18-.02-.22,0-.02-.08-.14-.12-.14-.14-.08-.23,0-.63,0-.87.04.13.07-.07.07-.07-.25-.55-.2-.41-.8-.36-.07.25-.22,1.18-.43,1.3-.17.1-.41,0-.58.07-.03.01-.2.21-.22.22-.16.03-.21-.09-.29-.07.08,0-.07-.22-.07-.22-.02-.26.27-.71.29-.87.04-.29-.11-.53-.15-.72l.07-.22c.14.03.3-.05.43,0,.34.11.22.76.8.51.57-.26.23-.87.07-1.23-.38.03-.54.02-.87.07.14-.49.09-.44,0-.87-.07,0-.24-.09-.36-.14,0,0-.48.47-.36.51.31.1.14.92,0,1.16-.11.17-.46.28-.65.36.05-.93-.03-.73.58-1.3-.09-.27-.07-.33-.14-.58.04-.03.2-.1.22-.14.06-.14-.06-.21.07-.29,0,0-.13-.38-.14-.43.07.05.22.02.29.07.05.03.1.2.15.22.08.02.35-.05.29-.07.01-.04.2-.1.22-.14.07-.22-.08-.58,0-.8.05-.16.45-.09.36-.58-.03-.16-.32-.33-.43-.43.22-.47.22-.28.07-.72-.11-.33-.2-.68-.51-.8-.79-.31-.9.14-.8.8-.05.04-.35.17-.36.22v.15s-.14,0-.14,0c-.05-.19-.01-.33-.14-.43l-.07-.07s-.02-.17,0-.22h.07c.28-.14.39-.41.58-.65-.71-.13-.71-.45-.94-1.23.17-.08.54-.36.72-.36.38-.02.29.2.43.29.13.08.22-.01.36.07.09-.06.19-.17.29-.22-.05-.21.02-.36-.07-.51-.01-.02-.29-.14-.29-.14-.07-.27.2-.26.14-.58-.03-.16-.28-.25-.36-.36-.07-.09-.02-.2-.07-.29-.13-.2-.44-.32-.65-.43.03-.14-.04-.3,0-.43.02-.08.28-.26.29-.36.04-.4-.38-.62-.65-.72-.15-.06.2-.16.29-.14l.14.14c.64.17.52-.45.51-.8-.09-.02-.1-.13-.15-.15-.35-.12-.81.28-1.01.36l-.15-.22s.2-.1.22-.15c.04-.12,0-.31,0-.43.11.05.04-.12.22-.07.03,0,.11.19.14.22.37.23.52.05.8-.14-.3-.74-.3-1.02-1.16-.58.01,0,0-.2,0-.22.29-.13.43-.1.58-.36.02-.03.1-.05.14-.07-.03-.08.03-.21,0-.29-.05-.14-.33-.28-.36-.43-.09-.42.06-.73,0-1.16.07.04.14-.12.29,0,.15.13.02.73,0,1.01.14-.02.26.09.51,0,.02-.01.05-.14.07-.14,0-.07.21-.19.14-.43,0-.02-.15-.17-.14-.22.01-.11.32-.18.29-.58-.02-.24-.26-.17-.14-.51,0-.02.19-.18.22-.22,0,0-.02-.19-.07-.07-.05-.02-.08-.26-.14-.29-.15-.05-.42,0-.58,0v-.14s.07,0,.07,0c.01-.05.03-.33.07-.36.31-.28.65.03,1.01-.07.04-.01.15-.19.22-.22,0-.07-.03-.23,0-.29-.24-.3-.45-.46-.8-.65,0-.09.04-.36,0-.43-.09-.14-.23-.05-.36-.15-.16-.12-.24-.51-.29-.72-.08-.02-.12-.14-.14-.14-.9-.31-.57.74-.43,1.09-.13.04-.13,0-.22.07-.28.22-.24.19-.65.07.05-.09-.15-.1-.07-.14.41-.25.24-.71.22-1.3l.22-.07c.36-.64.07-.6-.58-.58.05.73.15.52-.43.65-.38-.55-.52-.65-1.23-.65-.03.06-.09.28-.15.36.03.04.21.19.22.22-.04.03,0,.31,0,.36-.2.04-.29,0-.43.07-.11-.41-.19-1.03-.36-1.38.21-.17.35-.28.51-.51-.06-.1-.05-.26-.07-.36-.05,0-.37-.05-.29,0-.22.12-.23.02-.36.22-.03.05-.14.39-.15.43-.08-.02-.29-.07-.29-.07-.04-.06-.09-.18-.14-.22-.08.05-.12-.12-.15-.14.54-.3.55-.21.43-.8-.09-.02-.1-.13-.15-.14-.09-.03-.34.06-.29.07h-.14c-.11.04-.1.32-.22.36-.08.02-.22-.04-.29,0-.09-.34-.22-.83-.51-.94-.08-.03-.15.05-.22,0-.04.06-.22.11-.29.14M580.22,100.68s-.51.12-.72.14c.01.07-.07.26.07.22.08.1.14.24.22.36.41-.06.37.14.65-.29l.15-.07c.02-.06-.04-.3-.07-.22-.12-.05-.05-.14-.29-.14M583.55,91.27c-.08.12-.03.19-.07.36-.33-.09-.47-.06-.8-.14-.44.95-.28.68-1.38.72l-.36.14c-.06.01-.13-.06-.07-.07-.1-.05-.26.04-.36,0-.09-.04-.11-.5-.51-.36,0,0-.17.28,0,.22,0,0,.06.36.07.43-.33.24-.28.15-.51.51-.22-.06-.29-.05-.43-.14-.27-.18-.13-.34-.07-.29.02-.16.21-.15.14-.43-.02-.07-.25-.16-.29-.22-.06-.09-.04-.17-.07-.29-.02,0-.26-.05-.36-.07-.03.36-.06.73,0,1.16-.18.02-.63,0-.87.07-.1.03-.33.35-.43.43-.09-.04-.27,0-.36,0-.03-.12-.05-.25-.07-.43-.2-.05-.5-.25-.87-.14-.05.01-.19.21-.22.22h-.14c-.52.51.29.63.58.8.09.05.2.23.29.29-.12.08-.2.13-.29.22-.32-.22-.67-.49-1.23-.29-.12.04-.24.26-.36.29-.14.04-.3-.03-.43,0-.07-.29-.23-.86-.58-.87-.11,0-.21.11-.36.14-.02.08-.14.11-.14.14-.07.19-.06.51-.07.65-.53.14-.89.29-1.52.36-.11.28-.18.48-.29.72h-.14s0-.14,0-.14c-.12-.35-.47-.2-.72-.14-.09.55-.24.67-.43,1.09-.62-.21-.48-.19-.94,0,0,.13.03.3,0,.43l.22.07s0,.21,0,.22c-.37-.05-.57-.01-.87,0-.03.16-.2.14-.15.43,0,.02.23.28.22.29-.21.09-.31.58-.36.8-.6.15-.88.13-1.3.43.02.16-.06.35,0,.51.05.14.41.24.51.36.11.14.14.48.29.58.17.1.32-.02.43,0,.02,0,.08.13.14.14,0,0-.13.43-.07.43-.48-.05-.62-.05-1.09.07.03-.34.12-.83-.22-.94-.08-.03-.22.03-.29,0-.02.08-.14.11-.14.14-.12.33.16.47.07.8-.05.17-1.03.99-1.23,1.23.09.08.03.14.07.29.17.05.47.18.65.22-.83.21-1.24.5-.87,1.3-.25.18-.87.85-.8,1.3.02.1.26.22.29.29.03.08-.04.21,0,.29-.16.09-.98.7-1.01.8-.05.13.03.3,0,.43.03,0,.24.04.29.07.05.03.03.19.07.22-.12.19-.45.45-.51.65-.08.3.14.85-.15.94-.16.05.22.43.22.43v.07c.05.02.19.25.22.29.07.1.12.14.22.22-.15.22-.53.6-.36,1.09.02.05.18.14.22.22.2-.03.36-.07.51-.07v.72c.02-.16,0,.76.07.87.04.07.35.08.43.14.05.04.08.25.15.29.16.1.5.17.65.22,0,.19-.07.55,0,.72.08.21.42.19.65.29.07-.11.21-.18.29-.29.07-.09.09-.2.14-.29.06.17.21.68.36.8.25.2.52.12.87.07-.03.05.01.16,0,.22-.02.08-.3.3-.36.36.07.09.1.27.15.36.24,0,.44-.03.72,0,.11.01.29.21.58.14.06-.02.23-.27.29-.29.08-.03.21.03.29,0,.41.59.15.62,1.01.8.24-.35.46-1.08,1.16-.94.04,0,.21.27.29.29.27.06.42-.16.72-.07.07.02.15.25.22.29.12.07.23,0,.36.07.07.04.08.25.14.29.12.09,1.02.44,1.3.36.12-.04.2-.32.36-.36.39-.1.57.17.94.07.26-.07.42-.57.51-.8.99.13.66.02,1.23-.36.12-.08.26-.07.36-.14.06-.05.14-.27.22-.29.29-.1.64.07.94,0,.13-.03.26-.22.36-.29-.02-.12-.08-.33-.07-.36-.17-.08-.36-.22-.51-.29.24.02.58.1.72.07.26-.04.9-.54.94-.8.04-.24-.33-.52,0-.65.18-.07.46.03.65,0,.17-.03.5-.23.65-.29-.03-.09,0-.26,0-.36-.49-.23-.59-.25-1.09.07l-.07.14c-.26.04-.21-.13-.36-.14.02-.11.07-.34.07-.36.57.05.85.05,1.16-.29.55-.62.24-.79-.43-1.01.04-.08-.03-.13,0-.22.03-.08.26-.21.29-.29.03-.08-.03-.21,0-.29h.14s0,.26,0,.29c.1.05.17.05.22.14.39-.13,1.04-.39,1.09-.8.06-.62-.69-.6-1.09-.58.17-.41.22-.64.14-1.16.17-.06.25-.03.43-.07.02-.08.13-.12.14-.14.13-.38-.02-.37.22-.65.09-.11.25-.19.36-.29-.02.06-.14.25-.14.29-.04.24.14.3.07.51-.03.07-.3.24-.36.29.03.09,0,.26,0,.36.36.07.32.33.72-.07.13-.13.07-.24.14-.43.07.04.21-.03.29,0,.06.02.12.3.15.36.29-.14.66-.17.8-.43.03-.07.22-1.03.22-1.09-.01-.12-.2-.23-.15-.51,0,0,.33-.57.36-.65-.25-.07-.31-.16-.58-.22.04-.02-.04-.19,0-.22.11-.06.25-.05.36-.07,0-.08-.05-.44,0-.58.02-.06.23-.17.29-.22-.17-.36-.21-.57-.36-.94.16-.07.29-.05.43-.14.06-.04.15-.26.22-.29.23-.09.45,0,.65-.07.13-.05.22-.22.43-.22.45,0,.54.46.65.8.07-.04.24-.15.29-.14-.03-.39.02-.55.07-.87.01-.09-.07-.19-.07-.14v-.22c.25-.2.47-.38.72-.58-.03-.14.04-.3,0-.43l-.14-.14s-.07-.13-.07-.14c-.24.03-.5.14-.72.07-.04-.01-.16-.19-.22-.22.17-.28.21-.37.43-.58-.1-.38-.35-1.45-.29-1.81.05-.28.49-.5.58-.72.21-.57-.18-1.88-.51-2.03-.34-.15-.74.09-1.09-.07-.11-.05-.07-.26-.14-.36-.15-.21-.45-.14-.65-.29-.23-.17-.48-1.06-.72-1.16-.08-.03-.15.05-.22,0-.13.72-.11.69-.8.87-.05-.09-.07-.26-.14-.36-.06-.08-.34-.14-.36-.22-.08-.27.16-.41.07-.72-.03-.11-.28-.22-.36-.29,0,0,.07-.14.07-.14.18.01.41-.06.58,0,.14.05.25.39.43.43.92.23.73-.44.36-.72-.24-.19-.46-.27-.72-.43l-.14.07ZM538.66,90.33c-.1.1,0,.37-.07.51-.07.13-.45.31-.72.22,0,0-.14-.39-.36-.43-.21-.05-.48.07-.58.07l-.07.58-.36.43.22.07c.14.22.16.3.29.58-.08-.04-.21.03-.29,0-.25-.09-.52-.82-.8-.94-.35-.16-.96-.14-1.38-.22-.07.1-.19.15-.29.22,0,0,0,.21,0,.22.09.02.12.18,0,.14-.02,0-.06-.12-.07-.14-.2,0-.45,0-.65,0-.09.48-.29.69-.51,1.01-.09-.07-.2,0-.29-.07-.03-.02-.14-.27-.14-.29.49-.14-.82.03-.29.07-.12.03-.2,0-.29.07l-.43.51c-.11.2-.05.59-.29.72-.11.06-.42.06-.51.07-.36.93-.31.31-.87.58-.09.04-.14.29-.22.36-.07.06-.21.03-.29.07l-.07.14c-.32.2-.62.13-.94.14-.04.1-.07.31-.14.43-.12.19-.38.16-.58.29-.25.16-.84,1.1-1.01,1.16-.02,0-.31-.08-.43-.07-.27.02-.72.16-.94.22,0,.38.03.64.07.94-.17-.04.02.08-.14.07l-.14-.14c-.24-.07-.52.17-.58.29-.12.25-.02.48,0,.72.12,0,.31-.04.43,0-.07.83.02.84-.72.8-.02.05-.18.18-.22.22.08.28.06.42.14.72-.03,0-.31.05-.43.07,0,0,.03-.38-.72.14.11.8-.26,1.07-.14,1.95-.21.12-.46.31-.65.43.02.13-.03.23,0,.36.04.18.26.42.29.65.03.25,0,.47-.07.65,0,0-.14.07-.14.07-.08.45.1.98.14,1.38.09.03.19,0,.22.07.03.08-.04.21,0,.29-.05.06-.25.14-.29.22-.24.38-.01.72-.07,1.16,0,0-.13.06-.14.07v.14c-.02.11-.09.36,0,.58.02.05.18.1.22.14v.14c.75.05.76.06,1.16-.43.05.02.21.08.22.07-.03.1-.14.24-.14.29-.02.11.07.43.07.43.03.02.2.1.22.14.05.17-.02.4,0,.58-.66-.31-1.1-.24-.8.58.04.1,0,.17.07.22.13.08.33,0,.51.07.05.02.17.28.22.29.47.09.65-.39.8-.65.08.04.2.14.29.14-.25.5-.15.43,0,.87-.02,0,0,.2,0,.22-.04-.11-.08.19-.07.22.09.43.69.39,1.09.36-.02.04.01.17,0,.22-.08.19-.55.4-.72.51.04.12-.05.24,0,.36.02.07.42.41.51.43.3.07.83-.12,1.01-.22.07-.04.19-.27.29-.29.23-.04.31.09.51.14,0,0,0,.21,0,.22-.9.1-1.14.32-.65,1.01.39-.1.48-.05.87-.14.03.24.09.71.29.8.13.06.36-.02.51,0,.77.1.79.44,1.3-.29.37.04.6.1.87,0l.14-.14c.24-.03.49.13.65.14.21.01.28-.07.43-.07.05-.18.08-.34.14-.58-.12-.09-.23-.14-.36-.22v-.14c.24-.11.51-.29.72-.36.25-.08.64-.12.87,0l.14.14c.37.05.56-.18.8-.22.16-.03.43.06.58,0,.22-.1.21-.55.36-.72.16-.19.53-.28.72-.43-.07-.18.22,0,.22,0,.1.66,0,.55.65.65.11-.21.29-.64.58-.65.13,0,.04.1.22.07.04.1-.04.26,0,.36.01.04.18.14.22.22.08-.03.21.02.29,0,.23-.06.35-.59.43-.8.81-.03.64.04.94-.51.32.04.49.02.8,0,.02-.08.13-.12.14-.14.05-.16-.05-.35,0-.51.04-.13.35-.25.43-.36.09-.12.11-.34.22-.43.21-.19.55-.2.65-.51.05-.16-.03-.34,0-.51.01-.09.21-.35.22-.43.05-.55-.26-.6-.58-.8-.09.13-.19.24-.29.36.18.03-.22.14-.22.14.07-.39-.06-.38.36-.65.17-.11.28-.1.43-.22.05-.04.09-.19.14-.22.25-.12.55,0,.8-.14.12-.07.05-.29.14-.36-.11-.21-.03-.24-.22-.36-.11-.07-.22-.09-.36-.14.08-.05.13-.26.22-.29.21-.08.42.02.58-.07.14-.09.05-.23.15-.36.06-.09.31-.13.36-.22.07-.1.33-.88.29-1.09-.02-.12-.25-.21-.29-.29-.08-.17-.02-.28-.07-.51.1,0,.11-.14.14-.14.15-.04.21.12.29.14.44.1.53-.16.72-.29-.04-.31-.08-.69-.07-.94-.34-.17-.49-.07-.51-.58-.02-.5.25-.47.29-.65.03-.15-.07-.4-.07-.43-.05-.64.18-.7,0-1.3.1-.04.26,0,.36,0,.22-.46.19-.27.07-.8-.1-.03-.23-.02-.29-.07-.16-.15-.31-.41-.43-.58.31-.25.53-.5.87-.72-.04-.13.04-.24,0-.36-.01-.04-.2-.21-.22-.29-.07-.31-.03-.52-.07-.8.08,0,.39.05.58.07,0,0,.09-.33.07-.43,0-.04-.35-.93-.36-.94-.07-.07-.29-.1-.36-.14.11-.33.35-.94-.07-1.09-.12-.05-.24.04-.36,0-.05.14-.09.26-.14.36-.36.63-.06.04-.36.14,0-.13.03-.31,0-.43.02-.01.14-.06.14-.07.03-.11.07-.09.15-.14-.06-.16-.12-.32-.15-.43-.13.06-.58.25-.72.22-.02,0-.18-.21-.22-.22-.08-.02-.21.03-.29,0-.06.05-.23.34-.29.36-.08.02-.22-.04-.29,0,.25,0-.14-.94-.14-.94.37-.14.39-.18.65-.36-.03-.13,0-.31,0-.43-.32-.06-.38-.1-.8-.07-.09-.19-.07-.17-.22-.29-.22.14-.25.23-.58.36-.08.74-.04.73.58.72-.15.3-.12.41-.22.8-.18-.24-.44-.51-.72-.65h-.07c-.12-.25-.03-.6-.07-.87.15-.03.14,0,.22-.07.11-.1.35-.17.43-.29.03-.05.06-.3,0-.22-.02-.01-.1-.27-.15-.29-.34-.18-.87.07-1.16,0-.21-.05-.31-.51-.51-.58h-.14c-.04.07-.17.02-.22.07M560.23,81.2c-.07.2.05.36.07.51-.08.02-.12.13-.15.15-.26.09-.6-.07-.87,0-.15.03-.35.33-.51.36-.34.07-.51-.15-.8.07-.14.1-.43,1.02-.51,1.23-.08-.04-.14.03-.22,0-.08-.03-.19-.25-.29-.29-.66-.27-.64.28-.94.51-.11.08-.3.08-.43.14,0,0-.05-.21-.07-.29.09-.08.33-.17.36-.29.02-.08-.03-.21,0-.29-.06-.05-.13-.04-.14-.14-.13,0-.31.03-.43,0-.07.1-.26.24-.29.36-.01.05.03.17,0,.22-.05.08-.34.14-.36.22-.11.33.07.58.14.8h-.14c-.11.03-.32.41-.29.58,0,.06.19.17.22.22.02.05.03.26.07.29.06.05.17,0,.22.07-.13.27-.12.39-.22.72-.04-.02-.18,0-.22,0-.19-.4-.24-.25-.15-.87-.07-.03-.23-.2-.29-.22-.22-.06-.51.06-.72,0-.07-.02-.11-.26-.22-.29-.08-.02-.35.06-.29.07-.09.15-.19.3-.29.51-.01.02-.14.05-.14.07-.05.12.01.35-.07.43-.13.12-.37.03-.51.14-.1.08-.3,1.13-.14,1.23.22.14.36,0,.51-.07.11-.06.05-.14.07-.29.05.02.22.07.22.07-.04.22-.06.26-.07.51-.08.02-.12.13-.14.14-.22.07-.57-.06-.8,0l-.07.14c-.12.07-.22,0-.36.07.08-.39.12-.61.22-.94-.14-.06-.04,0-.07-.14-.35-.03-.65-.14-.87.14-.28.37-.18.74,0,1.09-.15.17-.4.38-.43.65-.01.09.04.29,0,.36-.02.02-.33.06-.36.07-.02.14-.02.32-.07.51.01,0,.26.05.29.07.08.07.07.3.14.36-.16,0-.97.07-1.16.22-.18.14.1.87,0,1.16-.05.15-.28.31-.36.43-.33.52-.57.92-.94,1.38-.06.07-.25.14-.29.29-.23.89.22.57.43.65.05.02.28.23.36.29-.13.28-.46.73-.22,1.16.04.08.24.12.29.22.05.11-.1.05-.07.22.07.43.55.43.94.43-.04.02-.28.21-.29.22-.7.21-.6-.1-.87.58-.32-.43-.57-.53-1.23-.65-.05.11-.13.14-.22.22.13.33.14.49.29.8-.12.08-.35.18-.43.29-.08.1-.06.28-.14.36-.07.07-.2.02-.29.07-.09.06-.22.27-.29.36.03.05,0,.23,0,.29.37.09.41.13.87.07-.04.08.03.13,0,.22l-.14.07c-.16.24-.08.38-.14.72.05.02.26.11.29.14.2.28.31.52.51.8-.14.09-.53.26-.58.43-.04.12.04.24,0,.36.19.05.52.12.72.22.04.02.15.2.22.22.13.03.23-.03.36,0-.04.17-.08.33-.14.58-.18,0-.2-.14-.43-.07-.04.01-.15.18-.22.22.28.51-.03.37.72.43.07.19.15.41.22.58h.07c.06.31-.1.41-.07.72.02.26.25.78.29,1.01.03.17-.06.35,0,.51,0,.03.13.07.14.14.6-.21.18.12.58-.36.08.04.13-.03.22,0,.02,0,.17.21.22.22.31.07.36-.13.65,0,.32.14-.03.36-.07.51-.02.08.03.21,0,.29.53.38.73.6,1.52.58.04-.1.07-.27.14-.36.05-.08.24-.08.29-.14v.8c.02.09.42.58.51.72.19-.02.38,0,.58,0,.02-.05.1-.28.14-.29.65-.15.83.56,1.16.65.21.05.32-.04.51-.07.07.09.11.32.22.36.08.02.21-.04.29,0,.01-.08.13-.12.15-.14.04-.12-.04-.24,0-.36-.07-.01-.39-.02-.51-.07-.13-.06-.18-.4-.29-.43h-.14c-.04-.08.04-.22,0-.29.05-.08.17-.2.22-.29.09.09.3.1.36.22.04.07-.02.21,0,.29.03.11.23.2.29.29.14-.03.29.03.43,0,.25-.06.31-.35.65-.36.39-.02.76.36,1.3.22.37-.1.28-.57.51-.72.25-.17.61-.04.94-.14.08-.03.2-.18.29-.22,0-.06-.03-.24,0-.29.04-.08.17-.05.22-.14.34.11.77.35,1.16.14.09-.05.14-.31.22-.36.07-.06.21-.03.29-.07.07-.04.22-.25.29-.29.17-.09.34-.08.51-.14,0,0,.09-.34.07-.43-.03-.11-.27-.21-.29-.29-.06-.21.09-.18.07-.36.1-.07.15-.19.22-.29.28.04.6.13.87,0,.16-.08.11-.24.22-.36.14-.17.47-.31.65-.43-.03-.24-.1-.47-.07-.65.03-.16.29-.32.36-.43.09-.16.07-.27.15-.43-.02-.02-.21-.12-.22-.14-.03-.08.04-.14,0-.22.58-.41.69-.63,0-1.01.43-.22.8-.45,1.23-.65-.03-.09,0-.26,0-.36-.09-.04-.21-.19-.29-.22-.29-.09-.47,0-.65-.14-.08-.07-.04-.24-.07-.36-.16.06-.11-.2-.15-.29.01,0,.41.03.29.07.47-.05,1.28-.11.87-.72-.04-.06-.27-.09-.29-.14-.05-.14.13-.35.07-.58-.05-.18-.32-.22-.36-.29-.15-.23-.21-.29.07-.43-.04-.5-.06-.48.22-.72.02-.02.19,0,.22,0,.01-.08,0-.41.07-.51l.43-.22c-.1-.3-.22-.6-.14-.8.02-.06.21-.24.22-.29.03-.17-.1-.11-.07-.22-.08.02-.28.07-.29.07-.18.61-.11.82-.51.29-.19.02-.17.09-.29.14,0,0-.01-.45,0-.58.58-.13.36-.03.65-.43.06.05.14-.03.22,0,.07.03.09.25.14.29.34.24.79.07,1.09,0-.03-.14.04-.3,0-.43-.03-.08-.26-.25-.29-.36-.02-.08-.04-.4.07-.36v-.14s-.21-.19-.22-.22c-.02-.04.02-.18,0-.22.54-.24.61-.28.87-.8l.14-.14c.02-.16-.13-.28-.07-.51.03-.13.27-.28.29-.43.02-.16-.12-.34-.07-.58.03-.14.33-.39.36-.51.04-.16-.03-.35,0-.51-.48-.28-.45-.16-.51-.87.12-.07.04-.06.07-.22h.14c0,.14-.01.36,0,.58.01,0,.4-.01.29-.07.03-.09.14-.37.22-.43,0-.01,0-.2,0-.22-.03-.12-.21-.26-.29-.36.06-.1.17-.2.22-.29.05-.09.2-.3.22-.36.08-.34-.14-.63-.14-.8-.01-.29.18-.44.14-.8l-.14-.22c-.17-.8-.04-.68-.8-.87-.03.14-.11.41-.14.58-.14.04-.09-.06-.14.07-.25-.01-.57-.06-.72-.07.03-.55,0-.75-.14-1.23-.21-.05-.57-.25-.87-.14-.05.02-.14.18-.22.22,0,.17.02.34,0,.51h-.14c-.07-.15,0-.23-.07-.36-.1-.18-.47-.34-.51-.58-.07-.41.2-.42.15-.8-.02-.1-.63-.92-.72-.94-.4-.09-.46.19-.65.29-.24.12-.51.19-.72.29.12.48.4,1.36-.51,1.16-.32-.07-.23-.29-.36-.58-.02-.05-.21-.1-.22-.14-.07-.33.18-.62,0-.94-.1-.19-.36-.13-.58-.22-.02.04-.2.1-.22.14"/>
          <path class="cls-1" d="M568.23,145.89c.73,0,1.36.57,1.36,1.34,0,.78-.63,1.35-1.36,1.35s-1.36-.57-1.36-1.35c0-.77.63-1.34,1.36-1.34M568.23,146.1c-.62,0-1.1.48-1.1,1.12,0,.65.48,1.13,1.1,1.13.62,0,1.1-.47,1.1-1.13s-.48-1.12-1.1-1.12M567.95,148h-.24s0-1.55,0-1.55h.59c.37,0,.55.14.55.44,0,.28-.17.4-.41.43l.44.68h-.26s-.41-.67-.41-.67h-.27v.67ZM567.95,147.14h.28c.29,0,.38-.08.38-.25,0-.15-.07-.23-.34-.23h-.32v.49Z"/>
        </g>
      </g>
      <path class="cls-1" d="M85.06,95.82l-2.08,14.56,22.97.09-1.74,11.78-22.88-.08-3.55,25.3h-13l9.02-63.87h40.29l-1.82,12.22h-27.21Z"/>
      <g>
        <path class="cls-1" d="M129.91,112.01c2.54-10.82,10.8-16.97,19.03-16.97,9.71,0,15.42,6.76,15.42,16.72,0,.08,0,.16-.01.24h13.76c0-.23.03-.45.03-.68,0-17.24-11.18-28.86-28.51-28.86-15.91,0-30.46,11.03-33.65,29.54h13.92Z"/>
        <path class="cls-1" d="M161.36,124.8c-3.72,7.13-10.37,11.14-17,11.14-7.58,0-12.74-4.29-14.53-11.14h-14.12c2.02,14.42,12.72,23.88,28.14,23.88,14.12,0,27.24-8.84,32.2-23.88h-14.68Z"/>
      </g>
      <g>
        <path class="cls-1" d="M201.22,112.01l2.35-16.88h11.7c6.67,0,9.19,3.37,9.02,8.23-.07,3.46-1.71,6.93-5.7,8.65h17.54c1.28-2.72,1.99-5.79,2.03-9.09.08-13-8.58-19.33-20.02-19.33h-25.91l-3.97,28.41h12.96Z"/>
        <polygon class="cls-1" points="211.49 124.8 217.88 147.47 232.26 147.47 225.26 124.8 211.49 124.8"/>
        <polygon class="cls-1" points="186.47 124.8 183.3 147.47 196.22 147.47 199.37 124.8 186.47 124.8"/>
      </g>
      <g>
        <polygon class="cls-1" points="321.77 112.01 334.38 83.6 320.51 83.6 308.48 112.01 321.77 112.01"/>
        <polygon class="cls-1" points="263.6 112.01 259.77 83.6 245.47 83.6 249.98 112.01 263.6 112.01"/>
        <polygon class="cls-1" points="301.22 112.01 297.28 83.6 282.9 83.6 270.76 112.01 301.22 112.01"/>
        <polygon class="cls-1" points="252.01 124.8 255.61 147.47 268.35 147.47 279.58 124.8 252.01 124.8"/>
        <polygon class="cls-1" points="303.06 124.8 303.01 124.94 302.99 124.8 288.61 124.8 293.39 147.47 306.04 147.47 316.1 124.8 303.06 124.8"/>
      </g>
      <g>
        <polygon class="cls-1" points="352.13 112.01 356.43 103.11 358.2 112.01 370.95 112.01 364.75 83.6 352.88 83.6 339.16 112.01 352.13 112.01"/>
        <polygon class="cls-1" points="332.98 124.8 322.03 147.47 335.11 147.47 345.98 124.8 332.98 124.8"/>
        <polygon class="cls-1" points="360.72 124.8 365.1 147.47 378.7 147.47 373.75 124.8 360.72 124.8"/>
      </g>
      <g>
        <path class="cls-1" d="M404.28,112.01l2.35-16.88h11.7c6.67,0,9.19,3.37,9.01,8.23-.06,3.46-1.71,6.93-5.7,8.65h17.54c1.28-2.72,1.99-5.79,2.02-9.09.08-13-8.58-19.33-20.02-19.33h-25.91l-3.97,28.41h12.97Z"/>
        <polygon class="cls-1" points="414.54 124.8 420.93 147.47 435.32 147.47 428.32 124.8 414.54 124.8"/>
        <polygon class="cls-1" points="389.53 124.8 386.36 147.47 399.27 147.47 402.42 124.8 389.53 124.8"/>
      </g>
      <g>
        <path class="cls-1" d="M463.29,112.01l2.31-16.28h10.05c9.93,0,15.85,6.65,16.1,16.28h13.69c-.28-17.15-12.04-28.41-28.31-28.41h-22.79l-3.97,28.41h12.93Z"/>
        <path class="cls-1" d="M488.75,124.8c-3.64,6.55-10.36,10.7-18.91,10.7h-9.88l1.52-10.7h-12.91l-3.17,22.67h26.95c15.12,0,26.81-9.15,31.19-22.67h-14.8Z"/>
      </g>
    </g>
  </g>
</svg>